<svg width="18" height="20" viewBox="0 0 18 20" fill="none" xmlns="http://www.w3.org/2000/svg">
<path d="M1 10.7502C1 6.21033 5.12142 4.79559 8.74739 6.00339C8.87946 6.19117 9.00799 6.25805 9.10118 6.15651C10.2109 4.94731 17.4243 4.68097 16.9803 10.7502C16.5364 16.8195 12.6523 19.1899 11.0987 18.9081C8.99017 18.5257 9.32312 18.1386 7.21458 18.9081C5.12615 19.6703 1 15.5799 1 10.7502Z" fill="#C2C2C2"/>
<path d="M9.01574 6.09792C5.32804 4.72745 1 6.09792 1 10.7502C1 15.5799 5.12615 19.6703 7.21458 18.9081C9.32312 18.1386 8.99017 18.5257 11.0987 18.9081C12.6523 19.1899 16.5364 16.8195 16.9803 10.7502C17.4243 4.68097 10.2109 4.94731 9.10118 6.15651C8.63632 6.66303 7.29196 2.9787 9.01574 1M4.29564 9.647C3.0231 11.0761 3.79993 14.0441 4.68772 14.4838" stroke="#5C5C5C" stroke-width="0.917777" stroke-linecap="round"/>
<path fill-rule="evenodd" clip-rule="evenodd" d="M9.09275 6.65698C7.42814 2.43568 12.2591 1.32786 16.972 2.43572C17.3049 6.17322 12.0891 11.8895 9.09275 6.65698ZM10.3179 4.36119C10.225 4.44733 10.2195 4.59251 10.3056 4.68544C10.3917 4.77838 10.5369 4.78389 10.6298 4.69775C10.8693 4.47584 11.4833 4.08237 12.2829 3.77122C13.0794 3.46127 14.0313 3.24454 14.9464 3.347C15.0724 3.3611 15.1859 3.27044 15.2 3.14451C15.2141 3.01858 15.1235 2.90506 14.9975 2.89096C13.9827 2.77734 12.9529 3.01812 12.1165 3.34357C11.2832 3.66783 10.6131 4.08764 10.3179 4.36119Z" fill="#979797"/>
</svg>
