<svg width="17" height="20" viewBox="0 0 17 20" fill="none" xmlns="http://www.w3.org/2000/svg">
<path d="M1 10.7502C1 6.21033 5.12142 4.79559 8.74739 6.00339C8.87946 6.19117 9.00799 6.25805 9.10118 6.15651C10.2109 4.94731 17.4243 4.68097 16.9803 10.7502C16.5364 16.8195 12.6523 19.1899 11.0987 18.9081C8.99017 18.5257 9.32312 18.1386 7.21458 18.9081C5.12615 19.6703 1 15.5799 1 10.7502Z" fill="#E5645C"/>
<path d="M9.01574 6.09792C5.32804 4.72745 1 6.09792 1 10.7502C1 15.5799 5.12615 19.6703 7.21458 18.9081C9.32312 18.1386 8.99017 18.5257 11.0987 18.9081C12.6523 19.1899 16.5364 16.8195 16.9803 10.7502C17.4243 4.68097 10.2109 4.94731 9.10118 6.15651C8.63632 6.66303 7.29196 2.9787 9.01574 1M4.29564 9.647C3.0231 11.0761 3.79993 14.0441 4.68772 14.4838" stroke="#9B2018" stroke-width="0.917777" stroke-linecap="round"/>
<path fill-rule="evenodd" clip-rule="evenodd" d="M9.09275 6.65685C7.42814 2.43556 12.2591 1.32774 16.972 2.4356C17.3049 6.1731 12.0891 11.8894 9.09275 6.65685ZM10.3179 4.36107C10.225 4.44721 10.2195 4.59238 10.3056 4.68532C10.3917 4.77826 10.5369 4.78377 10.6298 4.69763C10.8693 4.47572 11.4833 4.08224 12.2829 3.7711C13.0794 3.46115 14.0313 3.24441 14.9464 3.34688C15.0724 3.36098 15.1859 3.27032 15.2 3.14439C15.2141 3.01846 15.1235 2.90494 14.9975 2.89084C13.9827 2.77722 12.9529 3.018 12.1165 3.34345C11.2832 3.6677 10.6131 4.08751 10.3179 4.36107Z" fill="#A2BE52"/>
</svg>
