<svg width="14" height="16" viewBox="0 0 14 16" fill="none" xmlns="http://www.w3.org/2000/svg">
<circle cx="7" cy="9" r="6.5" stroke="#282828"/>
<mask id="path-2-inside-1_581_320" fill="white">
<path d="M2.05025 13.9497C2.86424 14.7637 3.86642 15.3644 4.96801 15.6986C6.0696 16.0327 7.23659 16.0901 8.36563 15.8655C9.49467 15.6409 10.5509 15.1414 11.4408 14.4111C12.3306 13.6808 13.0266 12.7423 13.4672 11.6788C13.9077 10.6153 14.0791 9.45949 13.9663 8.31388C13.8535 7.16827 13.4598 6.06816 12.8203 5.11101C12.1807 4.15386 11.315 3.3692 10.2998 2.82655C9.28455 2.2839 8.15116 2 7 2L7 9L2.05025 13.9497Z"/>
</mask>
<path d="M2.05025 13.9497C2.86424 14.7637 3.86642 15.3644 4.96801 15.6986C6.0696 16.0327 7.23659 16.0901 8.36563 15.8655C9.49467 15.6409 10.5509 15.1414 11.4408 14.4111C12.3306 13.6808 13.0266 12.7423 13.4672 11.6788C13.9077 10.6153 14.0791 9.45949 13.9663 8.31388C13.8535 7.16827 13.4598 6.06816 12.8203 5.11101C12.1807 4.15386 11.315 3.3692 10.2998 2.82655C9.28455 2.2839 8.15116 2 7 2L7 9L2.05025 13.9497Z" stroke="#282828" stroke-width="2" mask="url(#path-2-inside-1_581_320)"/>
<line x1="13" y1="2.70711" x2="11.7071" y2="4" stroke="#282828" stroke-linecap="round"/>
<line x1="10.5" y1="0.5" x2="4.5" y2="0.5" stroke="#282828" stroke-linecap="round"/>
</svg>
