<svg width="14" height="14" viewBox="0 0 14 14" fill="none" xmlns="http://www.w3.org/2000/svg">
<path fill-rule="evenodd" clip-rule="evenodd" d="M14 7C14 10.866 10.866 14 7 14C3.13401 14 0 10.866 0 7C0 3.13401 3.13401 0 7 0C10.866 0 14 3.13401 14 7ZM6.51473 2.47059C6.92894 2.47059 7.26473 2.80638 7.26473 3.22059L7.26472 6.99118C7.26472 7.02491 7.2625 7.05813 7.25818 7.09068L9.28238 8.60883C9.61375 8.85736 9.68091 9.32746 9.43238 9.65883C9.18385 9.9902 8.71375 10.0574 8.38238 9.80883L6.28826 8.23824C6.06158 8.06823 5.95854 7.79454 5.99561 7.53249C5.85331 7.39599 5.76472 7.20393 5.76472 6.99118L5.76473 3.22059C5.76473 2.80638 6.10051 2.47059 6.51473 2.47059Z" fill="#282828"/>
</svg>
