<svg width="13" height="13" viewBox="0 0 13 13" fill="none" xmlns="http://www.w3.org/2000/svg">
<path d="M5.61171 0.673568C5.8913 -0.224524 7.1087 -0.224522 7.38829 0.67357L8.28243 3.54562C8.40747 3.94726 8.76609 4.21919 9.17072 4.21919H12.0642C12.969 4.21919 13.3452 5.42757 12.6132 5.98262L10.2723 7.75764C9.94496 8.00587 9.80798 8.44586 9.93302 8.8475L10.8272 11.7196C11.1068 12.6176 10.1219 13.3645 9.38987 12.8094L7.04899 11.0344C6.72164 10.7862 6.27836 10.7862 5.95101 11.0344L3.61013 12.8094C2.87813 13.3645 1.89324 12.6176 2.17284 11.7196L3.06698 8.8475C3.19202 8.44586 3.05504 8.00587 2.72768 7.75764L0.386801 5.98262C-0.345193 5.42756 0.0310045 4.21919 0.935798 4.21919H3.82928C4.23392 4.21919 4.59253 3.94726 4.71757 3.54562L5.61171 0.673568Z" fill="#282828"/>
</svg>
