<svg width="259" height="259" viewBox="0 0 259 259" fill="none" xmlns="http://www.w3.org/2000/svg">
<g filter="url(#filter0_d_1379_2671)">
<circle cx="124.5" cy="121.5" r="112.5" fill="#20D9D9"/>
</g>
<path d="M179 21.4998C171 15.8998 154.5 10.5 152.5 12.4999C151 14 156.7 16.1335 158 17C161 19 168 22.4998 172.5 36.9998C174.157 42.3388 173.5 48.9998 165.5 65.4998C157.5 81.9998 174.988 103.5 185.5 103.5C199 103.5 207.488 102.555 213 106C221 111 223.5 120.262 223.5 133.5C223.5 142 221.205 148.879 218 153C214.5 157.5 213 159 210 165C207.6 169.8 210.5 193.25 213 194.5C216 196 217.5 186 223.5 178C231 168 239 130.5 239 127C240 119.5 233.5 91.4998 231 81.9998C228.5 72.4998 217 55.4998 213 48.9998C209 42.4998 189 28.4999 179 21.4999L179 21.4998Z" fill="#A2BE52"/>
<path d="M70.1037 221C78.1037 226.6 93.3967 231.5 95.0002 230C95.5 228.5 93.6047 229.105 92.5002 228C90.0002 225.5 81.1037 220 76.6037 205.5C74.9468 200.161 76.6037 196.337 76.6037 178C76.6037 156.5 72.0002 151.5 60.0002 142.5C49.2002 134.4 39.934 136 34.5002 130C25.8967 120.5 25.6037 122.238 25.6037 109C25.6037 100.5 27.8988 93.6206 31.1037 89.5C34.6037 85 36.1037 83.5 39.1037 77.5C41.5037 72.7 44.1082 53.6814 39.1037 49C37.5002 47.5 31.6037 56.5 25.6037 64.5C18.1037 74.5 10.1037 112 10.1037 115.5C9.10371 123 15.6037 151 18.1037 160.5C20.6037 170 32.1037 187 36.1037 193.5C40.1037 200 60.1037 214 70.1037 221Z" fill="#A2BE52"/>
<g filter="url(#filter1_d_1379_2671)">
<path d="M149.558 99.3585C148.095 97.8902 146.356 96.7251 144.442 95.9302C142.527 95.1353 140.475 94.7261 138.402 94.7261C136.329 94.7261 134.276 95.1353 132.362 95.9302C130.448 96.7251 128.709 97.8902 127.246 99.3585L125 101.633L122.754 99.3585C121.291 97.8902 119.552 96.7251 117.638 95.9302C115.723 95.1353 113.671 94.7261 111.598 94.7261C109.525 94.7261 107.472 95.1353 105.558 95.9302C103.643 96.7251 101.905 97.8902 100.441 99.3585C94.2581 105.542 93.8789 115.983 101.666 123.917L125 147.25L148.333 123.917C156.121 115.983 155.741 105.542 149.558 99.3585Z" fill="#F2A9A4" stroke="#BF5851" stroke-width="3" stroke-linecap="round" stroke-linejoin="round"/>
<path d="M125 101.633L115.871 110.792C114.716 111.955 114.069 113.528 114.069 115.167C114.069 116.806 114.716 118.378 115.871 119.542C117.034 120.696 118.607 121.343 120.246 121.343C121.885 121.343 123.457 120.696 124.621 119.542L131.212 113.096C132.85 111.475 135.062 110.566 137.366 110.566C139.671 110.566 141.882 111.475 143.521 113.096L150.521 120.096M142.5 129.75L136.666 123.917M133.75 138.5L127.916 132.667" stroke="#BF5851" stroke-width="3" stroke-linecap="round" stroke-linejoin="round"/>
</g>
<defs>
<filter id="filter0_d_1379_2671" x="0" y="0" width="259" height="259" filterUnits="userSpaceOnUse" color-interpolation-filters="sRGB">
<feFlood flood-opacity="0" result="BackgroundImageFix"/>
<feColorMatrix in="SourceAlpha" type="matrix" values="0 0 0 0 0 0 0 0 0 0 0 0 0 0 0 0 0 0 127 0" result="hardAlpha"/>
<feOffset dx="5" dy="8"/>
<feGaussianBlur stdDeviation="8.5"/>
<feComposite in2="hardAlpha" operator="out"/>
<feColorMatrix type="matrix" values="0 0 0 0 0.14902 0 0 0 0 0.34902 0 0 0 0 0.301961 0 0 0 0.25 0"/>
<feBlend mode="normal" in2="BackgroundImageFix" result="effect1_dropShadow_1379_2671"/>
<feBlend mode="normal" in="SourceGraphic" in2="effect1_dropShadow_1379_2671" result="shape"/>
</filter>
<filter id="filter1_d_1379_2671" x="80" y="80" width="90" height="90" filterUnits="userSpaceOnUse" color-interpolation-filters="sRGB">
<feFlood flood-opacity="0" result="BackgroundImageFix"/>
<feColorMatrix in="SourceAlpha" type="matrix" values="0 0 0 0 0 0 0 0 0 0 0 0 0 0 0 0 0 0 127 0" result="hardAlpha"/>
<feOffset dy="4"/>
<feGaussianBlur stdDeviation="5"/>
<feComposite in2="hardAlpha" operator="out"/>
<feColorMatrix type="matrix" values="0 0 0 0 0 0 0 0 0 0 0 0 0 0 0 0 0 0 0.1 0"/>
<feBlend mode="normal" in2="BackgroundImageFix" result="effect1_dropShadow_1379_2671"/>
<feBlend mode="normal" in="SourceGraphic" in2="effect1_dropShadow_1379_2671" result="shape"/>
</filter>
</defs>
</svg>
