<svg width="12" height="7" viewBox="0 0 12 7" fill="none" xmlns="http://www.w3.org/2000/svg">
<path d="M0.699804 6.70005C0.516471 6.51672 0.424805 6.28338 0.424805 6.00005C0.424805 5.71672 0.516471 5.48338 0.699804 5.30005L5.2998 0.700048C5.3998 0.600048 5.50814 0.529382 5.6248 0.488049C5.74147 0.446715 5.86647 0.425715 5.9998 0.425049C6.13314 0.425049 6.26247 0.450049 6.3878 0.500049C6.51314 0.550049 6.61714 0.616715 6.6998 0.700048L11.2998 5.30005C11.4831 5.48338 11.5748 5.71672 11.5748 6.00005C11.5748 6.28338 11.4831 6.51672 11.2998 6.70005C11.1165 6.88338 10.8831 6.97505 10.5998 6.97505C10.3165 6.97505 10.0831 6.88338 9.8998 6.70005L5.9998 2.80005L2.0998 6.70005C1.91647 6.88338 1.68314 6.97505 1.3998 6.97505C1.11647 6.97505 0.883138 6.88338 0.699804 6.70005Z" fill="#26594D"/>
</svg>
