<svg width="21" height="30" viewBox="0 0 21 30" fill="none" xmlns="http://www.w3.org/2000/svg">
<line x1="1.5" y1="15.5" x2="19.5" y2="15.5" stroke="#282828" stroke-width="3" stroke-linecap="round"/>
<line x1="3.5" y1="21.75" x2="18.5" y2="21.75" stroke="#282828" stroke-width="3" stroke-linecap="round"/>
<line x1="6.5" y1="27.75" x2="14.5" y2="27.75" stroke="#282828" stroke-width="3" stroke-linecap="round"/>
<path d="M13.2179 4.66886C13.2179 8.43642 11.7695 10.7327 10.9191 10.7327C10.0686 10.7327 8.62006 8.43642 8.62006 4.66886C8.62006 0.9013 10.0686 0.5 10.9191 0.5C11.7695 0.5 13.2179 0.9013 13.2179 4.66886Z" fill="#282828"/>
<path d="M6.99373 7.59254C9.01201 9.48367 9.05752 11.186 8.36193 11.5088C7.66634 11.8316 5.25154 11.2288 3.23326 9.33768C1.21498 7.44655 2.18471 6.69532 2.88029 6.37252C3.57588 6.04971 4.97545 5.7014 6.99373 7.59254Z" fill="#282828"/>
</svg>
