<svg width="192" height="244" viewBox="0 0 192 244" fill="none" xmlns="http://www.w3.org/2000/svg">
<path d="M65.8458 127.263L65.8488 127.17C65.6244 126.835 65.4454 126.548 65.403 126.406C62.8056 122.343 59.7296 118.545 56.796 114.706C55.4436 112.883 54.0428 111.106 52.5465 109.372C51.8219 108.506 51.0503 107.638 50.2771 106.818C49.3676 105.852 48.7309 105.176 48.3641 104.883C47.4486 104.105 46.5331 103.326 45.5691 102.593C45.1553 102.299 44.787 102.053 44.3732 101.759C44.1429 101.611 43.9125 101.463 43.6821 101.315C42.8031 100.866 41.8727 100.555 40.9422 100.245C40.8483 100.242 40.8028 100.193 40.7103 100.144C40.6164 100.141 40.5694 100.139 40.4285 100.135C39.8648 100.117 39.3512 100.006 38.7875 99.9885C35.4526 99.882 32.9297 96.4298 33.2192 93.2548C33.5646 89.8006 36.6439 87.6043 39.9789 87.7108C47.964 87.9658 54.4785 93.0439 59.8873 98.8828C58.8707 92.4349 58.3723 85.9568 58.9117 79.3713C59.5869 71.4789 71.8679 72.6672 71.2397 80.561C70.1594 93.7788 73.885 106.682 76.8606 119.514C80.1886 111.004 85.1411 103.155 87.6811 94.2915C88.6296 91.0907 92.7199 89.6291 95.6462 90.7528C98.9438 92.0288 100.148 95.5325 99.2014 98.6866C96.4012 108.337 90.7247 116.772 87.5062 126.269C85.8448 131.18 85.8324 140.405 86.0378 145.75C86.0855 147.203 87.3663 148.321 88.8724 148.275C91.6981 148.131 94.5708 147.989 97.3935 147.939C98.1921 147.964 98.9071 147.659 99.4887 147.116C103.119 143.86 112.237 133.662 116.019 127.133C121.672 116.496 126.901 104.394 131.812 91.9545C148.343 49.869 117.554 8.37976 73.7792 1.03474C28.9752 -6.48362 -2.02777 27.9282 0.103465 73.0915C1.5265 103.622 54.4786 143.103 67.874 149.15C69.0333 149.655 70.2859 148.712 69.9975 147.438C68.5671 140.696 67.2307 133.957 65.8003 127.215L65.8458 127.263Z" fill="#A2BE52"/>
<path d="M179.526 26.7823C169.912 12.5313 157.818 3.31535 132.75 1.43477C130.06 1.23297 120.215 0.808459 115.828 2.0617C110.879 3.47532 106.373 5.59923 108.934 8.95569L117.081 15.8497L120.842 18.9833C120.842 18.9833 122.722 20.8635 123.349 20.8635C127.736 22.7437 143.404 12.716 162.832 34.0247C171.381 45.318 176.01 61.5591 169.697 82.021C161.162 109.668 135.717 123.589 125.909 125.004C124.589 125.186 123.397 125.999 122.712 127.242C120.664 130.71 116.825 136.602 113.522 141.563C111.095 145.18 113.702 149.833 117.708 149.342C148.295 145.593 181.98 114.358 188.41 86.1942C193.44 64.1851 190.189 42.5231 179.573 26.7833L179.526 26.7823Z" fill="#5A8C32"/>
<path d="M35.8697 216.977C37.1244 214.303 37.8538 211.279 38.0289 207.878C38.204 204.476 38.0289 201.453 37.5621 198.778C37.066 196.104 36.5116 193.226 35.9281 190.144C35.3445 187.063 35.0236 184.766 35.0236 183.312C35.0236 179.795 36.0156 176.975 38.0289 174.794C40.0422 172.614 42.6682 171.538 45.907 171.538C49.3501 171.538 51.8302 172.614 53.3475 174.736C54.8647 176.888 55.6234 180.609 55.6234 185.929C55.6234 192.528 53.4642 200.29 49.1166 209.244C44.7983 218.198 39.196 226.076 32.3392 232.85C25.4823 239.653 18.9755 243.054 12.8481 243.054C6.0204 243.054 2.28559 240.38 1.64367 235.06C1.29353 232.385 1.87709 230.263 3.39436 228.693C4.91163 227.123 7.09999 226.338 9.98864 226.338C11.7393 226.338 13.9569 226.629 16.5829 227.239C19.2381 227.821 21.1055 228.141 22.2435 228.141C24.1401 228.141 25.9783 227.588 27.729 226.454C28.0791 226.251 28.2834 226.018 28.3709 225.815C28.4293 225.611 28.3709 225.437 28.225 225.292C28.05 225.146 27.7582 225.088 27.3205 225.088C22.9438 224.739 19.0339 223.111 15.5909 220.204C12.1478 217.297 9.81357 213.43 8.61726 208.575L3.45272 187.324C3.16093 186.19 2.57737 184.65 1.70202 182.702C0.826676 180.754 0.27229 179.097 0.0680425 177.76C-0.340453 174.329 1.08928 172.614 4.38642 172.614H18.9464C20.5512 172.614 21.7475 172.847 22.4769 173.312C23.2064 173.777 23.7316 174.62 23.9942 175.899L34.3525 216.832C34.7026 218.314 35.1986 218.373 35.8405 217.035L35.8697 216.977Z" fill="#E6645C"/>
<path d="M67.4388 178.719C72.5881 173.941 79.4635 171.538 88.0943 171.538C96.7251 171.538 103.6 173.941 108.75 178.719C113.899 183.496 116.474 190.184 116.474 198.783C116.474 207.381 113.899 214.069 108.75 218.846C103.6 223.624 96.7251 226.027 88.0943 226.027C79.4635 226.027 72.5881 223.624 67.4388 218.846C62.2896 214.069 59.715 207.381 59.715 198.783C59.715 190.184 62.2896 183.496 67.4388 178.719ZM93.4776 221.944C94.6771 221.655 95.4378 220.526 95.7596 218.528C96.0814 216.53 96.0522 213.867 95.6426 210.508C95.2622 207.15 94.5016 202.865 93.3605 197.624C91.6051 189.518 89.9082 183.698 88.2698 180.166C86.6314 176.634 84.7882 175.129 82.6525 175.621C78.9953 176.46 78.9368 184.596 82.5354 200.028C84.4371 208.192 86.1926 214.011 87.831 217.428C89.4401 220.844 91.3125 222.35 93.4483 221.944H93.4776Z" fill="#E6645C"/>
<path d="M143.749 190.085C143.952 177.73 147.893 171.538 155.602 171.538C160.558 171.538 163.253 174.634 163.687 180.855C163.745 182.388 163.629 183.806 163.282 185.108C162.934 186.41 162.528 187.481 162.064 188.349C161.601 189.217 160.818 189.998 159.717 190.692C158.587 191.387 157.717 191.936 157.051 192.313C156.384 192.689 155.225 193.094 153.602 193.47C151.95 193.846 150.791 194.106 150.154 194.251C149.487 194.396 148.241 194.598 146.386 194.83C144.532 195.061 143.401 195.235 142.967 195.293V211.929C142.967 212.566 143.199 213.723 143.662 215.43C144.126 217.137 144.358 218.324 144.358 218.931C144.358 220.609 143.662 222.027 142.3 223.155C140.938 224.313 139.286 224.891 137.316 224.891H127.665C125.695 224.891 124.043 224.313 122.681 223.155C121.319 221.998 120.623 220.58 120.623 218.931C120.623 218.295 120.855 217.137 121.319 215.43C121.782 213.723 122.014 212.537 122.014 211.929V187.539C122.014 186.844 121.782 185.629 121.29 183.922C120.797 182.215 120.565 180.942 120.565 180.103C120.565 178.28 121.116 176.833 122.246 175.705C123.376 174.576 124.854 173.853 126.767 173.506L135.374 172.03C140.474 171.191 143.025 173.708 143.025 179.582V189.94C143.025 190.432 143.17 190.692 143.43 190.721C143.72 190.75 143.865 190.519 143.865 190.027L143.749 190.085Z" fill="#E6645C"/>
<path d="M169.242 187.747C169.242 187.057 169.01 185.848 168.517 184.151C168.025 182.453 167.793 181.187 167.793 180.353C167.793 178.54 168.344 177.102 169.473 175.98C170.603 174.858 172.08 174.138 173.992 173.793L185.202 171.923C186.679 171.635 187.866 171.808 188.822 172.383C189.778 172.987 190.242 173.879 190.242 175.145V212.002C190.242 212.635 190.473 213.786 190.937 215.483C191.4 217.181 191.632 218.36 191.632 218.964C191.632 220.633 190.937 222.043 189.575 223.165C188.214 224.316 186.563 224.891 184.593 224.891H174.948C172.978 224.891 171.327 224.316 169.966 223.165C168.604 222.014 167.909 220.604 167.909 218.964C167.909 218.331 168.141 217.181 168.604 215.483C169.068 213.786 169.299 212.606 169.299 212.002V187.747H169.242ZM168.517 159.637C168.517 156.731 169.531 154.372 171.559 152.617C173.586 150.862 176.28 149.97 179.64 149.97C183 149.97 185.694 150.862 187.722 152.617C189.749 154.401 190.763 156.731 190.763 159.637C190.763 162.543 189.749 164.989 187.722 166.773C185.694 168.557 183 169.42 179.64 169.42C176.28 169.42 173.586 168.528 171.559 166.773C169.531 165.018 168.517 162.63 168.517 159.637Z" fill="#E6645C"/>
</svg>
