<svg width="390" height="107" viewBox="0 0 390 107" fill="none" xmlns="http://www.w3.org/2000/svg">
<path d="M280.121 126.541C271.776 108.346 291.423 89.6441 309.35 87.4565C337.603 84.009 340.888 71.7821 343.413 64.8455C345.937 57.9088 345.281 43.4369 363.857 40.8875C382.433 38.3381 395.432 32.3214 400.068 0.335432" stroke="#E5645C" stroke-width="2.62751"/>
<path d="M287.13 132.799C278.786 114.604 298.433 95.9022 316.36 93.7146C344.612 90.2671 347.898 78.0402 350.423 71.1036C352.947 64.1669 352.29 49.6949 370.867 47.1456C389.443 44.5962 402.442 38.5795 407.078 6.59352" stroke="#ECC64F" stroke-width="2.62751"/>
<path d="M294.14 139.057C285.796 120.862 305.442 102.16 323.369 99.9727C351.622 96.5252 354.908 84.2983 357.433 77.3617C359.957 70.425 359.3 55.9531 377.877 53.4037C396.453 50.8543 409.452 44.8376 414.088 12.8516" stroke="#E5A755" stroke-width="2.62751"/>
<path d="M301.15 145.315C292.806 127.12 312.452 108.418 330.379 106.231C358.632 102.783 361.918 90.5564 364.442 83.6198C366.967 76.6831 366.31 62.2111 384.886 59.6618C403.463 57.1124 416.462 51.0957 421.098 19.1097" stroke="#5A8C32" stroke-width="2.62751"/>
<path d="M308.16 151.573C299.816 133.379 319.462 114.677 337.389 112.489C365.642 109.041 368.928 96.8146 371.452 89.878C373.977 82.9413 373.32 68.4694 391.896 65.92C410.473 63.3706 423.472 57.3539 428.107 25.3679" stroke="#A2BE52" stroke-width="2.62751"/>
<path d="M8.77622 133.598C14.2083 137.24 35.5908 131.751 42.1099 129.201C59.1167 124.899 78.0837 119.663 77.3898 99.8642C76.6467 78.6602 67.7541 80.6539 65.2901 63.5899C63.9115 54.0426 46.3686 40.0903 26.9024 51.1849C-0.571083 66.843 -9.7834 44.4858 -26.7841 47.6605C-61.9914 54.235 -62.017 72.2979 -51.072 90.6294C-48.2734 95.3168 -56.9526 102.125 -52.7674 109.134C-49.064 115.337 -32.5519 131.58 -20.1198 132.655C-5.95039 133.88 -2.51525 126.028 8.77622 133.598Z" fill="url(#paint0_linear_1360_2524)"/>
<path d="M6.50333 139.49C12.7306 143.949 37.4329 138.305 44.9726 135.559C64.6193 131.145 86.5346 125.709 85.9242 102.514C85.2706 77.6726 75.0001 79.6815 72.3231 59.6225C70.8253 48.3994 50.7354 31.4323 28.1884 43.7061C-3.63303 61.0286 -14.0389 34.5292 -33.6678 37.6247C-74.3178 44.0351 -74.5203 65.1724 -62.0784 87.0239C-58.897 92.6113 -68.9677 100.262 -64.2101 108.618C-60.0001 116.011 -41.1205 135.622 -26.799 137.333C-10.4762 139.283 -6.44103 130.219 6.50333 139.49Z" fill="url(#paint1_linear_1360_2524)" stroke="#E0E0E0" stroke-width="2.62751"/>
<g filter="url(#filter0_b_1360_2524)">
<rect x="-23.6635" y="0.335373" width="420.401" height="107.436" fill="white" fill-opacity="0.5"/>
</g>
<defs>
<filter id="filter0_b_1360_2524" x="-26.5829" y="-2.58408" width="426.24" height="113.275" filterUnits="userSpaceOnUse" color-interpolation-filters="sRGB">
<feFlood flood-opacity="0" result="BackgroundImageFix"/>
<feGaussianBlur in="BackgroundImageFix" stdDeviation="1.45973"/>
<feComposite in2="SourceAlpha" operator="in" result="effect1_backgroundBlur_1360_2524"/>
<feBlend mode="normal" in="SourceGraphic" in2="effect1_backgroundBlur_1360_2524" result="shape"/>
</filter>
<linearGradient id="paint0_linear_1360_2524" x1="-48.3713" y1="116.497" x2="59.1505" y2="52.3005" gradientUnits="userSpaceOnUse">
<stop stop-color="#26594D"/>
<stop offset="0.34375" stop-color="#5A8C32"/>
<stop offset="1" stop-color="#A2BE52"/>
</linearGradient>
<linearGradient id="paint1_linear_1360_2524" x1="-59.2128" y1="117.394" x2="65.4743" y2="46.3996" gradientUnits="userSpaceOnUse">
<stop stop-color="#26594D"/>
<stop offset="0.34375" stop-color="#5A8C32"/>
<stop offset="1" stop-color="#A2BE52"/>
</linearGradient>
</defs>
</svg>
