<svg width="57" height="45" viewBox="0 0 57 45" fill="none" xmlns="http://www.w3.org/2000/svg">
<path d="M19.4194 38.338L19.4203 38.3098C19.3541 38.2089 19.3014 38.1226 19.2888 38.0798C18.5228 36.8558 17.6156 35.7117 16.7504 34.555C16.3516 34.0059 15.9385 33.4705 15.4972 32.9482C15.2835 32.6873 15.0559 32.426 14.8279 32.1787C14.5596 31.8878 14.3719 31.6842 14.2637 31.5961C13.9937 31.3615 13.7237 31.127 13.4394 30.9061C13.3173 30.8175 13.2087 30.7434 13.0867 30.6548C13.0188 30.6103 12.9508 30.5657 12.8829 30.5212C12.6236 30.3858 12.3492 30.2922 12.0748 30.1986C12.0471 30.1977 12.0337 30.1832 12.0064 30.1682C11.9787 30.1673 11.9649 30.1668 11.9233 30.1655C11.7571 30.16 11.6056 30.1269 11.4393 30.1215C10.4558 30.0894 9.71174 29.0494 9.79711 28.0929C9.89898 27.0523 10.8071 26.3907 11.7907 26.4228C14.1457 26.4996 16.067 28.0294 17.6621 29.7884C17.3623 27.8459 17.2153 25.8944 17.3744 23.9105C17.5736 21.533 21.1955 21.8909 21.0102 24.2689C20.6916 28.2508 21.7904 32.1378 22.668 36.0035C23.6495 33.4398 25.1101 31.0752 25.8592 28.4052C26.1389 27.441 27.3452 27.0007 28.2083 27.3392C29.1808 27.7236 29.5361 28.7791 29.2568 29.7293C28.431 32.6365 26.7568 35.1776 25.8076 38.0385C25.3176 39.5179 25.3139 42.2968 25.3745 43.907C25.3886 44.3447 25.7663 44.6815 26.2105 44.6678C27.0439 44.6244 27.8911 44.5815 28.7236 44.5664C28.9591 44.5741 29.17 44.4822 29.3415 44.3185C30.4122 43.3377 33.1014 40.2655 34.2167 38.2987C35.8839 35.0944 37.4262 31.4487 38.8745 27.7012C43.7499 15.023 34.6695 2.52439 21.7592 0.311714C8.54544 -1.95318 -0.598037 8.41336 0.0305143 22.0188C0.450201 31.216 16.067 43.1096 20.0176 44.9313C20.3595 45.0835 20.7289 44.7993 20.6439 44.4157C20.222 42.3846 19.8279 40.3545 19.406 38.3235L19.4194 38.338Z" fill="#282828"/>
<path d="M52.9464 8.06801C50.1111 3.77492 46.5444 0.998617 39.151 0.432092C38.3576 0.371299 35.4543 0.243417 34.1604 0.620955C32.701 1.04681 31.372 1.68663 32.1272 2.69776L34.5301 4.77457L35.6391 5.71857C35.6391 5.71857 36.1936 6.28498 36.3784 6.28498C37.6723 6.85138 42.2932 3.83057 48.0231 10.2498C50.5444 13.6519 51.9094 18.5445 50.0476 24.7086C47.5306 33.0372 40.0261 37.231 37.1337 37.6573C36.7444 37.712 36.3927 37.9569 36.1908 38.3314C35.5867 39.376 34.4543 41.1512 33.4804 42.6456C32.7645 43.7351 33.5334 45.137 34.7149 44.9891C43.7356 43.8597 53.6701 34.45 55.5665 25.9658C57.0499 19.3356 56.0912 12.8099 52.9602 8.06831L52.9464 8.06801Z" fill="#282828"/>
</svg>
