<svg width="150" height="202" viewBox="0 0 150 202" fill="none" xmlns="http://www.w3.org/2000/svg">
<path d="M30.038 180.636C31.0188 178.526 31.589 176.14 31.7258 173.457C31.8626 170.773 31.7258 168.388 31.3609 166.278C30.9732 164.168 30.5398 161.897 30.0837 159.466C29.6275 157.034 29.3766 155.223 29.3766 154.076C29.3766 151.3 30.1521 149.076 31.7258 147.355C33.2995 145.635 35.3522 144.787 37.8838 144.787C40.5751 144.787 42.5138 145.635 43.6998 147.31C44.8858 149.007 45.4788 151.943 45.4788 156.14C45.4788 161.346 43.791 167.47 40.3927 174.535C37.0172 181.599 32.6381 187.815 27.2783 193.159C21.9186 198.526 16.8325 201.209 12.0429 201.209C6.70593 201.209 3.78656 199.099 3.28479 194.902C3.0111 192.792 3.46725 191.117 4.65325 189.879C5.83924 188.64 7.54981 188.021 9.80775 188.021C11.1762 188.021 12.9096 188.25 14.9623 188.732C17.0377 189.191 18.4974 189.443 19.3869 189.443C20.8694 189.443 22.3063 189.007 23.6747 188.113C23.9484 187.952 24.1081 187.769 24.1765 187.608C24.2221 187.448 24.1765 187.31 24.0625 187.195C23.9256 187.081 23.6975 187.035 23.3554 187.035C19.9343 186.76 16.8781 185.475 14.1868 183.182C11.4955 180.888 9.67091 177.837 8.7358 174.007L4.69886 157.241C4.47079 156.346 4.01464 155.131 3.33041 153.594C2.64618 152.057 2.21284 150.75 2.05319 149.695C1.73388 146.988 2.85145 145.635 5.4287 145.635H16.8097C18.0641 145.635 18.9992 145.819 19.5694 146.186C20.1396 146.553 20.5501 147.218 20.7554 148.227L28.8521 180.521C29.1257 181.691 29.5135 181.737 30.0152 180.681L30.038 180.636Z" fill="#A2BE52"/>
<path d="M52.7543 150.452C56.7685 146.667 62.1282 144.764 68.8565 144.764C75.5847 144.764 80.9445 146.667 84.9586 150.452C88.9727 154.236 90.9798 159.534 90.9798 166.346C90.9798 173.158 88.9727 178.457 84.9586 182.241C80.9445 186.026 75.5847 187.929 68.8565 187.929C62.1282 187.929 56.7685 186.026 52.7543 182.241C48.7402 178.457 46.7332 173.158 46.7332 166.346C46.7332 159.534 48.7402 154.236 52.7543 150.452ZM73.0531 184.695C73.9882 184.466 74.5812 183.571 74.8321 181.989C75.0829 180.406 75.0601 178.296 74.7408 175.636C74.4443 172.975 73.8513 169.58 72.9618 165.429C71.5934 159.007 70.2705 154.397 68.9933 151.599C67.7161 148.8 66.2792 147.608 64.6143 147.998C61.7633 148.663 61.7177 155.108 64.523 167.333C66.0055 173.801 67.374 178.411 68.6512 181.117C69.9056 183.824 71.3653 185.016 73.0303 184.695H73.0531Z" fill="#A2BE52"/>
<path d="M111.438 159.466C111.598 149.672 114.7 144.764 120.766 144.764C124.667 144.764 126.788 147.218 127.13 152.149C127.175 153.365 127.084 154.489 126.81 155.521C126.537 156.553 126.217 157.401 125.853 158.09C125.488 158.778 124.872 159.397 124.005 159.947C123.116 160.498 122.431 160.934 121.907 161.232C121.382 161.53 120.47 161.851 119.193 162.149C117.893 162.447 116.98 162.654 116.479 162.768C115.954 162.883 114.973 163.044 113.514 163.227C112.054 163.411 111.164 163.548 110.822 163.594V176.782C110.822 177.287 111.005 178.204 111.37 179.558C111.735 180.911 111.917 181.851 111.917 182.333C111.917 183.663 111.37 184.787 110.298 185.682C109.226 186.599 107.926 187.058 106.375 187.058H98.78C97.2291 187.058 95.929 186.599 94.8571 185.682C93.7851 184.764 93.2378 183.64 93.2378 182.333C93.2378 181.828 93.4202 180.911 93.7851 179.558C94.1501 178.204 94.3325 177.264 94.3325 176.782V157.447C94.3325 156.897 94.1501 155.934 93.7623 154.58C93.3746 153.227 93.1921 152.218 93.1921 151.553C93.1921 150.108 93.6255 148.961 94.515 148.066C95.4045 147.172 96.5677 146.599 98.073 146.323L104.847 145.154C108.861 144.488 110.868 146.484 110.868 151.14V159.351C110.868 159.741 110.982 159.947 111.187 159.97C111.415 159.993 111.529 159.81 111.529 159.42L111.438 159.466Z" fill="#A2BE52"/>
<path d="M129.684 157.47C129.684 156.92 129.502 155.957 129.114 154.603C128.726 153.25 128.544 152.241 128.544 151.576C128.544 150.131 128.977 148.984 129.867 148.09C130.756 147.195 131.919 146.622 133.425 146.346L142.251 144.856C143.414 144.626 144.349 144.764 145.102 145.223C145.855 145.704 146.22 146.415 146.22 147.424V176.806C146.22 177.31 146.402 178.228 146.767 179.581C147.132 180.934 147.314 181.874 147.314 182.356C147.314 183.686 146.767 184.81 145.695 185.705C144.623 186.622 143.323 187.081 141.772 187.081H134.177C132.626 187.081 131.326 186.622 130.254 185.705C129.182 184.787 128.635 183.663 128.635 182.356C128.635 181.851 128.818 180.934 129.182 179.581C129.547 178.228 129.73 177.287 129.73 176.806V157.47H129.684ZM129.114 135.062C129.114 132.745 129.912 130.865 131.509 129.466C133.105 128.066 135.226 127.355 137.872 127.355C140.518 127.355 142.639 128.066 144.235 129.466C145.832 130.888 146.63 132.745 146.63 135.062C146.63 137.379 145.832 139.328 144.235 140.75C142.639 142.172 140.518 142.86 137.872 142.86C135.226 142.86 133.105 142.149 131.509 140.75C129.912 139.351 129.114 137.447 129.114 135.062Z" fill="#A2BE52"/>
<path d="M51.7852 102.235L51.7875 102.16C51.611 101.89 51.4703 101.66 51.4369 101.546C49.3942 98.2821 46.975 95.2313 44.6679 92.1466C43.6043 90.6824 42.5026 89.2546 41.3258 87.8619C40.7559 87.1662 40.1491 86.4693 39.541 85.81C38.8257 85.0343 38.325 84.4913 38.0365 84.2562C37.3165 83.6308 36.5965 83.0054 35.8383 82.4164C35.5129 82.1801 35.2233 81.9825 34.8978 81.7462C34.7167 81.6274 34.5355 81.5087 34.3543 81.3899C33.663 81.0288 32.9312 80.7792 32.1995 80.5296C32.1256 80.5272 32.0898 80.4884 32.0171 80.4485C31.9432 80.446 31.9063 80.4448 31.7955 80.4412C31.3522 80.4268 30.9482 80.3383 30.5049 80.3239C27.8821 80.2383 25.898 77.4651 26.1256 74.9145C26.3973 72.1396 28.8191 70.3753 31.4419 70.4608C37.7218 70.6657 42.8452 74.7451 47.0991 79.4357C46.2995 74.2559 45.9076 69.0518 46.3318 63.7614C46.8628 57.4213 56.5214 58.3758 56.0273 64.7172C55.1776 75.3354 58.1077 85.7008 60.4479 96.0093C63.0652 89.1729 66.9602 82.8672 68.9578 75.7473C69.7038 73.176 72.9206 72.0019 75.2221 72.9046C77.8155 73.9296 78.7629 76.7443 78.0181 79.278C75.8159 87.0308 71.3515 93.8069 68.8203 101.436C67.5137 105.381 67.5039 112.792 67.6655 117.085C67.7029 118.253 68.7102 119.151 69.8947 119.114C72.117 118.999 74.3763 118.884 76.5963 118.844C77.2243 118.864 77.7866 118.619 78.244 118.183C81.0992 115.567 88.2703 107.375 91.2446 102.13C95.6903 93.5851 99.8031 83.8633 103.665 73.8699C116.666 40.0614 92.452 6.73172 58.0245 0.831239C22.7878 -5.20849 -1.59476 22.4356 0.0813715 58.7167C1.20054 83.2427 42.8453 114.959 53.3803 119.817C54.292 120.223 55.2772 119.465 55.0503 118.442C53.9254 113.026 52.8743 107.612 51.7494 102.196L51.7852 102.235Z" fill="#A2BE52"/>
<path d="M141.19 21.5145C133.629 10.0663 124.118 2.66282 104.403 1.15208C102.287 0.989969 94.5446 0.648949 91.0943 1.65572C87.2024 2.79132 83.6586 4.49753 85.6724 7.19387L92.0801 12.732L95.0374 15.2494C95.0374 15.2494 96.5161 16.7598 97.009 16.7598C100.459 18.2702 112.782 10.2147 128.061 27.3326C134.785 36.4049 138.425 49.4518 133.46 65.8895C126.748 88.099 106.736 99.2825 99.023 100.419C97.9848 100.565 97.0469 101.218 96.5085 102.217C94.8976 105.003 91.8781 109.736 89.2809 113.721C87.3718 116.627 89.4223 120.365 92.5729 119.971C116.628 116.959 143.12 91.8666 148.177 69.242C152.133 51.5614 149.576 34.1596 141.227 21.5153L141.19 21.5145Z" fill="#A2BE52"/>
</svg>
