<svg width="32" height="32" viewBox="0 0 32 32" fill="none" xmlns="http://www.w3.org/2000/svg">
<path d="M11.0475 24.8101L11.048 24.794C11.0104 24.7366 10.9803 24.6875 10.9732 24.6632C10.5374 23.9668 10.0213 23.316 9.52914 22.6579C9.30225 22.3456 9.06722 22.041 8.81618 21.7439C8.6946 21.5955 8.56513 21.4468 8.43542 21.3061C8.28282 21.1406 8.176 21.0248 8.11446 20.9746C7.96085 20.8412 7.80725 20.7078 7.64551 20.5822C7.57609 20.5317 7.5143 20.4896 7.44487 20.4392C7.40622 20.4139 7.36757 20.3885 7.32892 20.3632C7.18144 20.2861 7.02533 20.2329 6.86922 20.1797C6.85346 20.1791 6.84583 20.1709 6.83032 20.1623C6.81456 20.1618 6.80667 20.1616 6.78303 20.1608C6.68846 20.1577 6.60228 20.1388 6.50771 20.1358C5.94818 20.1175 5.5249 19.5259 5.57347 18.9818C5.63142 18.3898 6.14807 18.0134 6.7076 18.0316C8.04732 18.0753 9.14032 18.9456 10.0478 19.9463C9.87724 18.8413 9.79361 17.731 9.88412 16.6024C9.9974 15.2499 12.0579 15.4535 11.9525 16.8063C11.7712 19.0716 12.3963 21.2828 12.8956 23.482C13.4539 22.0236 14.2848 20.6783 14.711 19.1594C14.8701 18.6109 15.5564 18.3604 16.0474 18.553C16.6006 18.7716 16.8028 19.3721 16.6439 19.9126C16.1741 21.5666 15.2217 23.0121 14.6817 24.6397C14.4029 25.4813 14.4008 27.0622 14.4353 27.9782C14.4433 28.2272 14.6582 28.4188 14.9109 28.411C15.385 28.3864 15.8669 28.3619 16.3405 28.3533C16.4745 28.3577 16.5945 28.3054 16.6921 28.2123C17.3012 27.6544 18.831 25.9066 19.4655 24.7877C20.4139 22.9648 21.2913 20.8908 22.1153 18.7589C24.8888 11.5464 19.7231 4.4361 12.3786 3.17733C4.86141 1.88886 -0.340216 7.78627 0.0173593 15.5262C0.256114 20.7584 9.14034 27.5246 11.3878 28.5609C11.5823 28.6475 11.7925 28.4859 11.7441 28.2676C11.5041 27.1122 11.2799 25.9572 11.0399 24.8018L11.0475 24.8101Z" fill="#A0BE52"/>
<path d="M30.1205 7.58969C28.5075 5.1474 26.4785 3.56799 22.2725 3.2457C21.8212 3.21112 20.1695 3.13837 19.4334 3.35314C18.6031 3.59541 17.8471 3.9594 18.2767 4.53462L19.6437 5.71609L20.2746 6.25312C20.2746 6.25312 20.5901 6.57534 20.6952 6.57534C21.4313 6.89756 24.06 5.17906 27.3197 8.83088C28.754 10.7663 29.5306 13.5496 28.4714 17.0563C27.0395 21.7944 22.7703 24.1802 21.1248 24.4227C20.9034 24.4538 20.7033 24.5932 20.5884 24.8062C20.2448 25.4005 19.6006 26.4103 19.0465 27.2605C18.6393 27.8803 19.0767 28.6778 19.7488 28.5937C24.8806 27.9512 30.5322 22.5981 31.6111 17.7715C32.455 13.9997 31.9096 10.2873 30.1284 7.58986L30.1205 7.58969Z" fill="#A0BE52"/>
</svg>
