<svg width="90" height="118" viewBox="0 0 90 118" fill="none" xmlns="http://www.w3.org/2000/svg">
<path d="M18.142 99.1C18.742 97.8333 19.0753 96.4 19.142 94.8C19.242 93.1667 19.1753 91.7167 18.942 90.45C18.7087 89.1833 18.442 87.8167 18.142 86.35C17.8753 84.8833 17.742 83.8 17.742 83.1C17.742 81.4333 18.2087 80.0833 19.142 79.05C20.1087 78.0167 21.3587 77.5 22.892 77.5C24.5253 77.5 25.692 78.0167 26.392 79.05C27.1253 80.05 27.492 81.8167 27.492 84.35C27.492 87.4833 26.4587 91.1833 24.392 95.45C22.3587 99.6833 19.7087 103.417 16.442 106.65C13.2087 109.883 10.142 111.5 7.24199 111.5C4.00866 111.5 2.24199 110.233 1.94199 107.7C1.77533 106.433 2.04199 105.417 2.74199 104.65C3.47533 103.917 4.52533 103.55 5.89199 103.55C6.72533 103.55 7.75866 103.683 8.99199 103.95C10.2587 104.25 11.1587 104.4 11.692 104.4C12.592 104.4 13.4587 104.133 14.292 103.6C14.4587 103.5 14.5587 103.4 14.592 103.3C14.6253 103.2 14.592 103.117 14.492 103.05C14.4253 102.983 14.292 102.95 14.092 102.95C12.0253 102.783 10.1753 102.017 8.54199 100.65C6.90866 99.25 5.80866 97.4 5.24199 95.1L2.79199 85C2.65866 84.4667 2.37533 83.7333 1.94199 82.8C1.54199 81.8667 1.29199 81.0833 1.19199 80.45C0.991992 78.8167 1.67533 78 3.24199 78H10.142C10.9087 78 11.4587 78.1167 11.792 78.35C12.1587 78.55 12.4087 78.95 12.542 79.55L17.442 99C17.6087 99.7 17.842 99.7333 18.142 99.1ZM31.901 80.95C34.3343 78.65 37.5843 77.5 41.651 77.5C45.7176 77.5 48.9676 78.65 51.401 80.95C53.8343 83.2167 55.051 86.4 55.051 90.5C55.051 94.6 53.8343 97.8 51.401 100.1C48.9676 102.367 45.7176 103.5 41.651 103.5C37.5843 103.5 34.3343 102.367 31.901 100.1C29.4676 97.8 28.251 94.6 28.251 90.5C28.251 86.4 29.4676 83.2167 31.901 80.95ZM44.201 101.55C44.7676 101.417 45.1176 100.883 45.251 99.95C45.4176 98.9833 45.401 97.7 45.201 96.1C45.0343 94.5 44.6843 92.45 44.151 89.95C43.3176 86.0833 42.5176 83.3167 41.751 81.65C40.9843 79.95 40.101 79.2167 39.101 79.45C37.3676 79.85 37.351 83.7333 39.051 91.1C39.951 95 40.7843 97.7667 41.551 99.4C42.3176 101.033 43.201 101.75 44.201 101.55ZM67.4342 86.35C67.5342 80.45 69.4175 77.5 73.0842 77.5C75.4508 77.5 76.7342 78.9833 76.9342 81.95C76.9675 82.6833 76.9008 83.3667 76.7342 84C76.5675 84.6 76.3675 85.1167 76.1342 85.55C75.9342 85.95 75.5675 86.3167 75.0342 86.65C74.5008 86.9833 74.0675 87.25 73.7342 87.45C73.4342 87.6167 72.8842 87.8 72.0842 88C71.3175 88.1667 70.7675 88.2833 70.4342 88.35C70.1342 88.4167 69.5342 88.5167 68.6342 88.65C67.7675 88.75 67.2342 88.8167 67.0342 88.85V96.8C67.0342 97.1 67.1342 97.6667 67.3342 98.5C67.5675 99.3 67.6842 99.85 67.6842 100.15C67.6842 100.95 67.3508 101.633 66.6842 102.2C66.0508 102.733 65.2675 103 64.3342 103H59.7342C58.8008 103 58.0008 102.733 57.3342 102.2C56.7008 101.633 56.3842 100.95 56.3842 100.15C56.3842 99.85 56.4842 99.3 56.6842 98.5C56.9175 97.6667 57.0342 97.1 57.0342 96.8V85.15C57.0342 84.8167 56.9175 84.25 56.6842 83.45C56.4508 82.6167 56.3342 82 56.3342 81.6C56.3342 80.7333 56.6008 80.0333 57.1342 79.5C57.6675 78.9667 58.3842 78.6167 59.2842 78.45L63.3842 77.75C65.8175 77.35 67.0342 78.55 67.0342 81.35V86.3C67.0342 86.5333 67.1008 86.6667 67.2342 86.7C67.3675 86.7 67.4342 86.5833 67.4342 86.35ZM78.1197 71.65C78.1197 70.25 78.6031 69.1333 79.5697 68.3C80.5364 67.4333 81.8197 67 83.4197 67C85.0197 67 86.3031 67.4333 87.2697 68.3C88.2364 69.1333 88.7197 70.25 88.7197 71.65C88.7197 73.0833 88.2364 74.2333 87.2697 75.1C86.3031 75.9333 85.0197 76.35 83.4197 76.35C81.8197 76.35 80.5364 75.9333 79.5697 75.1C78.6031 74.2333 78.1197 73.0833 78.1197 71.65ZM78.4697 85.15C78.4697 84.8167 78.3531 84.25 78.1197 83.45C77.8864 82.6167 77.7697 82 77.7697 81.6C77.7697 80.7333 78.0364 80.0333 78.5697 79.5C79.1031 78.9667 79.8197 78.6167 80.7197 78.45L86.0697 77.55C86.7697 77.4167 87.3364 77.5 87.7697 77.8C88.2364 78.0667 88.4697 78.5 88.4697 79.1V96.8C88.4697 97.1 88.5697 97.6667 88.7697 98.5C89.0031 99.3 89.1197 99.85 89.1197 100.15C89.1197 100.95 88.7864 101.633 88.1197 102.2C87.4864 102.733 86.7031 103 85.7697 103H81.1697C80.2364 103 79.4364 102.733 78.7697 102.2C78.1364 101.633 77.8197 100.95 77.8197 100.15C77.8197 99.85 77.9197 99.3 78.1197 98.5C78.3531 97.6667 78.4697 97.1 78.4697 96.8V85.15Z" fill="#E5645C"/>
<path d="M31.4356 58.8245L31.437 58.7812C31.3333 58.6264 31.2506 58.4939 31.2309 58.4283C30.0304 56.5502 28.6086 54.7948 27.2526 53.0199C26.6275 52.1774 25.98 51.3559 25.2884 50.5546C24.9534 50.1543 24.5968 49.7533 24.2394 49.3739C23.819 48.9276 23.5247 48.6151 23.3552 48.4799C22.932 48.12 22.5088 47.7602 22.0632 47.4213C21.872 47.2853 21.7017 47.1716 21.5105 47.0357C21.404 46.9673 21.2975 46.899 21.191 46.8307C20.7847 46.6229 20.3546 46.4793 19.9245 46.3357C19.8811 46.3343 19.8601 46.312 19.8174 46.2889C19.7739 46.2876 19.7522 46.2869 19.6871 46.2848C19.4266 46.2765 19.1891 46.2256 18.9286 46.2173C17.3871 46.1681 16.221 44.5724 16.3548 43.1048C16.5144 41.5081 17.9378 40.493 19.4793 40.5422C23.1702 40.6601 26.1814 43.0073 28.6815 45.7062C28.2116 42.7258 27.9812 39.7314 28.2305 36.6875C28.5426 33.0394 34.2192 33.5886 33.9288 37.2374C33.4295 43.347 35.1516 49.3111 36.527 55.2425C38.0652 51.3089 40.3544 47.6807 41.5285 43.584C41.9669 42.1045 43.8576 41.4289 45.2102 41.9483C46.7344 42.5381 47.2912 44.1576 46.8535 45.6155C45.5592 50.0763 42.9353 53.9752 41.4477 58.365C40.6797 60.6348 40.674 64.8987 40.7689 67.3693C40.7909 68.041 41.383 68.5577 42.0791 68.5367C43.3852 68.4702 44.7131 68.4043 46.0178 68.3811C46.3869 68.3928 46.7174 68.2519 46.9862 68.0007C48.6643 66.4959 52.879 61.782 54.6271 58.7642C57.2399 53.8476 59.6571 48.2538 61.9271 42.5038C69.5682 23.0508 55.3367 3.87334 35.1027 0.478283C14.3931 -2.9969 0.0627115 12.9092 1.04782 33.7848C1.70559 47.8967 26.1814 66.1459 32.3731 68.941C32.909 69.1746 33.488 68.7385 33.3547 68.1498C32.6935 65.0335 32.0758 61.9185 31.4146 58.8022L31.4356 58.8245Z" fill="#A2BE52"/>
<path d="M83.9814 12.3793C79.5376 5.79214 73.9477 1.53228 62.3602 0.66302C61.1168 0.569743 56.5664 0.373524 54.5385 0.952806C52.2512 1.60622 50.1684 2.58794 51.352 4.13939L55.1179 7.32596L56.856 8.77441C56.856 8.77441 57.7251 9.64348 58.0148 9.64348C60.0426 10.5125 67.2849 5.87752 76.2652 15.7269C80.2167 20.947 82.3561 28.454 79.4381 37.912C75.4932 50.6911 63.7317 57.1259 59.1985 57.7801C58.5883 57.8639 58.0371 58.2397 57.7206 58.8144C56.7739 60.4172 54.9992 63.1409 53.4728 65.4339C52.3507 67.1057 53.5559 69.2566 55.4076 69.0297C69.5456 67.2968 85.1156 52.8589 88.0878 39.841C90.4127 29.6678 88.9101 19.6551 84.0031 12.3798L83.9814 12.3793Z" fill="#5A8C32"/>
</svg>
