<svg width="14" height="14" viewBox="0 0 14 14" fill="none" xmlns="http://www.w3.org/2000/svg">
<path d="M6.74767 10.7649C6.64867 10.6659 6.59683 10.5399 6.59215 10.3869C6.58747 10.2339 6.63481 10.1079 6.73417 10.0089L9.38017 7.36292H3.34567C3.19267 7.36292 3.06433 7.31108 2.96065 7.2074C2.85697 7.10372 2.80531 6.97556 2.80567 6.82292C2.80567 6.66992 2.85751 6.54158 2.96119 6.4379C3.06487 6.33422 3.19303 6.28256 3.34567 6.28292H9.38017L6.73417 3.63692C6.63517 3.53792 6.58783 3.41192 6.59215 3.25892C6.59647 3.10592 6.64831 2.97992 6.74767 2.88092C6.84667 2.78192 6.97267 2.73242 7.12567 2.73242C7.27867 2.73242 7.40467 2.78192 7.50367 2.88092L11.0677 6.44492C11.1217 6.48992 11.16 6.54626 11.1827 6.61394C11.2054 6.68162 11.2165 6.75128 11.2162 6.82292C11.2162 6.89492 11.205 6.96242 11.1827 7.02542C11.1604 7.08842 11.122 7.14692 11.0677 7.20092L7.50367 10.7649C7.40467 10.8639 7.27867 10.9134 7.12567 10.9134C6.97267 10.9134 6.84667 10.8639 6.74767 10.7649Z" fill="#F4F4F5"/>
</svg>
