<svg width="40" height="39" viewBox="0 0 40 39" fill="none" xmlns="http://www.w3.org/2000/svg">
<path d="M10.8847 25.4539L11.9837 25.204C11.935 24.9903 11.825 24.7954 11.6673 24.6432C11.5095 24.4911 11.3107 24.3882 11.0954 24.3472L10.8847 25.4539ZM31.4002 20.7891L30.7317 19.8823C30.5552 20.0124 30.4205 20.1911 30.344 20.3965C30.2676 20.6019 30.2527 20.8252 30.3012 21.039L31.4002 20.7891ZM24.1107 10.7584C24.177 11.0499 24.3563 11.3032 24.6093 11.4624C24.8623 11.6216 25.1681 11.6739 25.4596 11.6076C25.7511 11.5413 26.0043 11.362 26.1636 11.109C26.3228 10.856 26.3751 10.5501 26.3088 10.2586L24.1107 10.7584ZM10.9221 13.7573C10.9884 14.0488 11.1678 14.302 11.4207 14.4612C11.6737 14.6205 11.9796 14.6727 12.2711 14.6064C12.5626 14.5401 12.8158 14.3608 12.975 14.1078C13.1343 13.8548 13.1865 13.5489 13.1202 13.2575L10.9221 13.7573ZM10.3722 9.64413C8.13744 10.1523 6.1961 11.5273 4.97522 13.4668C3.75434 15.4063 3.35392 17.7513 3.86205 19.9861L6.06014 19.4863C5.68457 17.8345 5.98053 16.1012 6.88292 14.6677C7.78531 13.2341 9.22022 12.2178 10.872 11.8422L10.3722 9.64413ZM25.5259 8.5102C27.1777 8.13463 28.911 8.43059 30.3445 9.33298C31.778 10.2354 32.7944 11.6703 33.17 13.322L35.3681 12.8222C34.8599 10.5875 33.4849 8.64616 31.5454 7.42528C29.6059 6.2044 27.2608 5.80398 25.0261 6.31211L25.5259 8.5102ZM27.7598 31.8902L18.9674 33.8894L19.4672 36.0875L28.2596 34.0883L27.7598 31.8902ZM18.9674 33.8894C17.5547 34.2107 16.6045 34.4236 15.8751 34.4893C15.1789 34.5521 14.853 34.4613 14.6189 34.3126L13.4194 36.222C14.2378 36.7372 15.1303 36.8194 16.0789 36.7347C16.9943 36.6529 18.1161 36.3948 19.4672 36.0875L18.9674 33.8894ZM10.9238 30.7096C11.2311 32.0607 11.4834 33.1839 11.8054 34.0446C12.1378 34.9369 12.5993 35.7058 13.4176 36.2209L14.6192 34.3141C14.3854 34.1669 14.1626 33.9124 13.9164 33.2564C13.662 32.5714 13.4431 31.6225 13.1219 30.2098L10.9238 30.7096ZM31.4394 26.0448C31.7606 27.4574 31.9736 28.4077 32.0393 29.1371C32.102 29.8333 32.0112 30.1591 31.8625 30.3933L33.772 31.5927C34.2871 30.7744 34.3693 29.8819 34.2846 28.9333C34.2029 28.0179 33.9447 26.8961 33.6375 25.545L31.4394 26.0448ZM28.2596 34.0883C29.6107 33.7811 30.7338 33.5288 31.5945 33.2067C32.4868 32.8744 33.2572 32.4126 33.772 31.5927L31.864 30.393C31.7168 30.6268 31.4623 30.8495 30.8063 31.0958C30.1213 31.3502 29.1724 31.569 27.7598 31.8902L28.2596 34.0883ZM10.872 11.8422C11.1856 11.7709 11.4972 11.7247 11.8076 11.7004L11.634 9.45276C11.2093 9.48558 10.7875 9.54954 10.3722 9.64413L10.872 11.8422ZM16.6995 3.58193C15.0917 3.94753 13.6387 4.80752 12.5446 6.04116C11.4505 7.27479 10.7702 8.82012 10.5993 10.4601L12.8408 10.6933C12.963 9.5217 13.4491 8.41777 14.2308 7.53655C15.0126 6.65533 16.0506 6.04107 17.1993 5.78002L16.6995 3.58193ZM10.5993 10.4601C10.5108 11.3177 10.5636 12.1841 10.7555 13.0246L12.9536 12.5248C12.8127 11.9049 12.7803 11.2881 12.8423 10.693L10.5993 10.4601ZM25.0261 6.31211C24.6056 6.40774 24.1978 6.53281 23.8056 6.68518L24.6224 8.78653C24.9164 8.67245 25.2184 8.58009 25.5259 8.5102L25.0261 6.31211ZM17.1993 5.78002C18.3478 5.51907 19.5491 5.62427 20.6347 6.08088C21.7204 6.53748 22.6357 7.32256 23.2524 8.32592L25.1727 7.14646C24.3096 5.74179 23.0282 4.64267 21.5086 4.00337C19.9889 3.36407 18.3072 3.2167 16.6995 3.58193L17.1993 5.78002ZM23.2524 8.32592C23.5656 8.83573 23.8031 9.40589 23.9441 10.0258L26.1422 9.52595C25.9459 8.66283 25.6134 7.86461 25.1727 7.14646L23.2539 8.32559L23.2524 8.32592ZM13.1219 30.2098L11.9837 25.204L9.78563 25.7038L10.9238 30.7096L13.1219 30.2098ZM11.0954 24.3472C9.87415 24.1148 8.74727 23.5311 7.85287 22.6676C6.95848 21.8042 6.33545 20.6986 6.06014 19.4863L3.86205 19.9861C4.23478 21.6258 5.07778 23.1212 6.28773 24.289C7.49768 25.4568 9.02203 26.2463 10.674 26.5606L11.0954 24.3472ZM30.3012 21.039L31.4394 26.0448L33.6375 25.545L32.4993 20.5392L30.3012 21.039ZM33.17 13.322C33.4459 14.5342 33.3622 15.8005 32.9291 16.9658C32.496 18.1311 31.7323 19.1447 30.7317 19.8823L32.0687 21.6959C33.4223 20.6981 34.4554 19.3271 35.0415 17.751C35.6275 16.1748 35.741 14.4619 35.3681 12.8222L33.17 13.322ZM23.9441 10.0258L24.1107 10.7584L26.3088 10.2586L26.1422 9.52595L23.9441 10.0258ZM10.7555 13.0246L10.9221 13.7573L13.1202 13.2575L12.9536 12.5248L10.7555 13.0246Z" fill="#5A8C32"/>
<path d="M19.6134 16.3969L19.0335 17.3641C19.2827 17.5137 19.58 17.5612 19.8635 17.4968C20.1469 17.4323 20.3945 17.2609 20.5545 17.0182L19.6134 16.3969ZM19.8828 21.0655C19.1697 20.756 18.3663 20.3469 17.7209 19.8741C17.0397 19.3724 16.7228 18.9344 16.6511 18.6193L14.453 19.1191C14.7096 20.2475 15.5827 21.0985 16.386 21.6895C17.2244 22.3064 18.1994 22.7921 18.9858 23.1327L19.8828 21.0655ZM16.6511 18.6193C16.4592 17.7753 16.7613 17.3213 17.0699 17.1263C17.4069 16.914 18.0962 16.8004 19.0349 17.3637L20.1933 15.4297C18.7212 14.5469 17.1014 14.4452 15.8716 15.218C14.6118 16.0084 14.0875 17.5116 14.453 19.1191L16.6511 18.6193ZM23.0907 22.2008C23.6522 21.5523 24.3228 20.6924 24.812 19.7736C25.2807 18.8933 25.7001 17.7485 25.4435 16.6201L23.2454 17.1199C23.317 17.435 23.2207 17.967 22.8219 18.7142C22.4462 19.4207 21.8983 20.1356 21.3892 20.7229L23.0922 22.2005L23.0907 22.2008ZM25.4435 16.6201C25.078 15.0126 23.9537 13.8842 22.4776 13.7159C21.0345 13.5509 19.6183 14.3445 18.6723 15.7756L20.5545 17.0182C21.1559 16.1047 21.8265 15.9091 22.2237 15.9544C22.5844 15.9957 23.0535 16.2758 23.2454 17.1199L25.4435 16.6201ZM18.9876 23.1338C19.6168 23.4068 20.3358 23.7627 21.2414 23.5568L20.7416 21.3587C20.7064 21.3667 20.683 21.3721 20.5942 21.3475C20.3513 21.2687 20.1137 21.1745 19.8828 21.0655L18.9861 23.1341L18.9876 23.1338ZM21.3892 20.7229C21.2282 20.9211 21.0546 21.1088 20.8697 21.2849C20.8002 21.3454 20.7768 21.3507 20.7416 21.3587L21.2414 23.5568C22.147 23.3509 22.6414 22.7191 23.0907 22.2008L21.3892 20.7229Z" fill="#5A8C32"/>
<path d="M12.0229 30.4595L32.5385 25.7947Z" fill="#A2BE52"/>
<path d="M12.0229 30.4595L32.5385 25.7947" stroke="#5A8C32" stroke-width="1.7041" stroke-linecap="round" stroke-linejoin="round"/>
</svg>
