<?xml version="1.0" encoding="utf-8"?>
<!-- Generator: Adobe Illustrator 27.3.0, SVG Export Plug-In . SVG Version: 6.00 Build 0)  -->
<svg version="1.1" id="Layer_2_00000060734294746055296000000003388235264965402250_"
	 xmlns="http://www.w3.org/2000/svg" xmlns:xlink="http://www.w3.org/1999/xlink" x="0px" y="0px" viewBox="0 0 87.8 102"
	 style="enable-background:new 0 0 87.8 102;" xml:space="preserve">
<style type="text/css">
	.st0{fill:#FC8888;}
	.st1{fill:#F47D7D;}
	.st2{fill:#DD4343;}
	.st3{fill:#C2D66B;stroke:#939E26;stroke-width:1.37;stroke-linecap:round;stroke-linejoin:round;stroke-dasharray:0,0,0,0,0,0;}
	.st4{opacity:0.5;fill:#EF5959;}
	.st5{fill:#680303;stroke:#510000;stroke-width:0.6961;stroke-miterlimit:10;}
	.st6{fill:#FFFFFF;}
	.st7{fill:#680303;stroke:#510000;stroke-width:0.6965;stroke-miterlimit:10;}
	.st8{fill:none;stroke:#680303;stroke-width:1.01;stroke-linecap:round;stroke-miterlimit:10;}
	.st9{fill:none;stroke:#EA2A2A;stroke-width:0.9616;stroke-linecap:round;stroke-miterlimit:10;}
	.st10{fill:#FC9D9D;}
	.st11{fill:#FFD9D9;}
	.st12{fill:#FFFFFF;stroke:#FFFFFF;stroke-width:1.03;stroke-miterlimit:10;}
	.st13{fill:#FFFFFF;stroke:#A3C6CC;stroke-width:0.51;stroke-miterlimit:10;}
	.st14{fill:#E2F5F7;}
	.st15{fill:#EDC70A;}
	.st16{fill:none;stroke:#EDC70A;stroke-width:0.35;stroke-miterlimit:10;}
	.st17{opacity:0.8;fill:#79D8E2;stroke:#64CAE2;stroke-width:0.6848;stroke-miterlimit:10;}
	.st18{opacity:0.8;fill:#79D8E2;stroke:#64CAE2;stroke-width:0.8724;stroke-miterlimit:10;}
</style>
<g id="mascot">
	<g id="mascot-2">
		<path className="st0" d="M3.3,42.9c6.9-13.3,15.5-20.1,39.3-18.7c27.4-2.7,40.2,6.5,41.1,28c1,36.6-18.5,48.3-37,48.8
			C14.7,100.9-6.1,63.9,3.3,42.9z"/>
		<path className="st1" d="M17.6,39.3c2.7-5.7,5.7-10.3,9.8-13.6c-12.9,1.9-19,8.3-24.2,18.3c-9.3,21,13,56.5,45,56.5c2,0,4.1-0.4,6.2-1
			C26.7,93.4,9.1,59.9,17.6,39.3L17.6,39.3z"/>
		<path className="st2" d="M46.8,102L46.8,102c-6.6,0-13-1.5-18.9-4.5c-5.5-2.7-10.5-6.6-14.8-11.4C4.9,76.8,0,64.9,0,54.2
			c0-4.3,0.8-8.3,2.3-11.8l0-0.1c2.4-4.7,4.8-8.1,7.6-10.8c3.2-3.1,6.8-5.3,11.3-6.6c0.5-0.2,1.1,0.1,1.3,0.7
			c0.2,0.5-0.1,1.1-0.7,1.3c-4.1,1.3-7.6,3.3-10.5,6.2c-2.6,2.5-4.8,5.8-7.2,10.2c-1.4,3.2-2.1,6.9-2.1,10.9c0,5,1.1,10.4,3.3,15.7
			c2.2,5.3,5.4,10.4,9.2,14.8c8.7,9.8,20.1,15.2,32.1,15.2c5.9-0.2,11.3-1.4,16-3.8c5.4-2.7,9.8-6.7,13-11.9
			c0.3-0.5,0.9-0.6,1.4-0.3c0.2,0.1,0.4,0.4,0.5,0.6s0,0.5-0.1,0.8c-3.4,5.6-8.1,9.8-13.8,12.7C58.6,100.5,53,101.8,46.8,102
			L46.8,102L46.8,102z"/>
		<path className="st3" d="M41.9,37.7c6.6,16.8-26.2,21.4-22.1-0.2c-21,22.1-26.2-9.7,5.1-16.9l-4-13.7c-1.8-5.1,9-8.9,10.8-3.8
			l0.9,14.4C78.8,6.7,83.9,39.1,53.1,31.9C64.9,41.6,44.4,48.8,41.9,37.7L41.9,37.7z"/>
		<ellipse transform="matrix(0.9214 -0.3886 0.3886 0.9214 -22.186 23.6802)" className="st4" cx="47.4" cy="66.7" rx="10.3" ry="5.9"/>
		<g>
			<path className="st5" d="M22.9,62.4c3.7-2,8.6-0.1,11,4.2c2.4,4.3,1.3,9.5-2.4,11.5s-11,2.7-13.4-1.6C15.7,72.2,19.2,64.4,22.9,62.4z
				"/>
			<ellipse className="st6" cx="26.2" cy="66.7" rx="5.6" ry="5.5"/>
			<ellipse className="st6" cx="31.2" cy="73.7" rx="2.9" ry="2.8"/>
			<ellipse className="st6" cx="23.4" cy="72.5" rx="2.2" ry="2.2"/>
		</g>
		<path className="st7" d="M63,50.7c4.1-1,9.6,2.9,11.3,6.2c2.3,4.4-0.4,8.8-7.7,9.9c-4.2,0.7-7.9-1-9.1-5.8S58.9,51.7,63,50.7z"/>
		<ellipse className="st6" cx="65" cy="55.9" rx="5.5" ry="5.3"/>
		<ellipse className="st6" cx="69.1" cy="63.2" rx="2.8" ry="2.7"/>
		<ellipse className="st6" cx="62.3" cy="61.5" rx="2.2" ry="2.1"/>
		<path className="st8" d="M45.7,75.9c2-3.6,3.7-6,3.7-6s2.9,0.9,6.1,3"/>
		<g>
			<line className="st9" x1="40.2" y1="66.7" x2="37.7" y2="73.2"/>
			<line className="st9" x1="48.7" y1="63.4" x2="46.2" y2="69.9"/>
			<line className="st9" x1="53" y1="62" x2="50.5" y2="68.4"/>
			<line className="st9" x1="44.7" y1="64.7" x2="42.2" y2="71.1"/>
			<line className="st9" x1="57.4" y1="61.6" x2="54.9" y2="68.1"/>
		</g>
		<ellipse transform="matrix(0.8294 -0.5586 0.5586 0.8294 -45.9958 35.3807)" className="st10" cx="34.9" cy="93" rx="2.5" ry="3.3"/>
		
			<ellipse transform="matrix(0.8294 -0.5586 0.5586 0.8294 -40.8349 32.5651)" className="st11" cx="32.9" cy="83.1" rx="2.5" ry="3.3"/>
		
			<ellipse transform="matrix(0.8294 -0.5586 0.5586 0.8294 -44.6465 28.6081)" className="st10" cx="24.5" cy="87.4" rx="2.5" ry="3.3"/>
		<ellipse transform="matrix(0.9936 -0.1134 0.1134 0.9936 -7.6589 1.5832)" className="st10" cx="10.1" cy="68.1" rx="2.5" ry="3.3"/>
		<ellipse transform="matrix(0.9936 -0.1134 0.1134 0.9936 -6.9028 2.3549)" className="st11" cx="17.3" cy="61.9" rx="2.5" ry="3.3"/>
		<ellipse transform="matrix(0.9936 -0.1134 0.1134 0.9936 -6.4042 1.5033)" className="st10" cx="10" cy="57.1" rx="2.5" ry="3.3"/>
		<path className="st12" d="M75.8,50.4c0-0.2,0-0.3,0-0.5c0-0.4,0.3-0.8,0.7-0.8c0.4,0,0.8,0.3,0.8,0.7c0,0.2,0,0.3,0,0.5
			c0,0.4-0.3,0.8-0.7,0.8c-0.2,0-0.4,0-0.5-0.2C75.9,50.8,75.8,50.6,75.8,50.4z M73.2,40.5c-0.8-1.6-1.7-3.1-2.8-4.6
			c-0.3-0.3-0.2-0.8,0.1-1.1c0.3-0.3,0.8-0.2,1.1,0.1c1.2,1.5,2.2,3.1,3,4.8c0.2,0.4,0,0.8-0.4,1c-0.3,0.1-0.6,0.1-0.8-0.1
			C73.3,40.7,73.3,40.6,73.2,40.5L73.2,40.5z"/>
		<path className="st13" d="M34.5,18.8C27,14.1,32.8,5,40.3,9.7c3.6-6.1,11.3-1.6,7.7,4.6c5.8,0,5.8,7.5,0,7.5c2.6,5.4-4.1,8.7-6.8,3.3
			C36.9,29.7,30.2,23.5,34.5,18.8L34.5,18.8z"/>
		<path className="st14" d="M39.6,17.6c-3-1.4-1.4-5.1,1.7-3.7c1-2.5,4.1-1.2,3.1,1.3c2.2-0.3,2.5,2.5,0.4,2.8c1.3,1.9-1.1,3.5-2.3,1.6
			C41.1,21.5,38.3,19.6,39.6,17.6z"/>
		<circle className="st15" cx="41.8" cy="13.9" r="0.8"/>
		<circle className="st15" cx="44.9" cy="14.4" r="0.8"/>
		<circle className="st15" cx="44.9" cy="17" r="0.8"/>
		<circle className="st15" cx="43" cy="18.5" r="0.8"/>
		<circle className="st15" cx="40.3" cy="16.6" r="0.8"/>
		<polyline className="st16" points="44.9,14.4 42.4,16.5 41.8,13.9 		"/>
		<polyline className="st16" points="42.9,18.5 42.4,16.5 45.5,17 		"/>
		<line className="st16" x1="39.5" y1="16.7" x2="42.4" y2="16.5"/>
	</g>
</g>
<path className="st17" d="M62.3,72.3c-1.2-1.5-0.6-3.1,1.9-4.9c2.3-2.6,4.6-0.2,7.1-1.2s2.5-3.3,4.2-3.8c2.6-0.7,6,4.7,1.3,5.1
	c-4.7,0.5-2.8,2.9-4.8,4.5C70.1,73.6,64.6,74.2,62.3,72.3z"/>
<path className="st18" d="M38.6,78.2c0.4-1.9-0.6-2.9-4.3-3.5c-3.9,0.3-3.2,3.8-6.3,4.1c-3.1,0.3-3.4-1.6-9.1-0.5
	c-3,0.8-1.7,3.3-1.7,3.3c1.9,3,4,2.1,5.7,1.6c1.6-0.5,5.2-0.1,8.8-2.9C33.7,78.6,37.2,81.6,38.6,78.2z"/>
</svg>
