<svg width="17" height="17" viewBox="0 0 17 17" fill="none" xmlns="http://www.w3.org/2000/svg">
<path d="M0 5C0 4.66848 0.131699 4.35054 0.366119 4.11612C0.60054 3.8817 0.918479 3.75 1.25 3.75H3.75V1.25C3.75 0.918479 3.8817 0.600537 4.11612 0.366116C4.35054 0.131696 4.66848 0 5 0C5.33152 0 5.64947 0.131696 5.88389 0.366116C6.11831 0.600537 6.25 0.918479 6.25 1.25V3.75H8.75001C9.08153 3.75 9.39947 3.8817 9.63389 4.11612C9.86831 4.35054 10 4.66848 10 5C10 5.33152 9.86831 5.64946 9.63389 5.88388C9.39947 6.1183 9.08153 6.25 8.75001 6.25H6.25V8.75C6.25 9.08152 6.11831 9.39946 5.88389 9.63388C5.64947 9.8683 5.33152 10 5 10C4.66848 10 4.35054 9.8683 4.11612 9.63388C3.8817 9.39946 3.75 9.08152 3.75 8.75V6.25H1.25C0.918479 6.25 0.60054 6.1183 0.366119 5.88388C0.131699 5.64946 0 5.33152 0 5ZM16.25 12.5C16.25 12.8315 16.1183 13.1495 15.8839 13.3839C15.6495 13.6183 15.3315 13.75 15 13.75H13.75V15C13.75 15.3315 13.6183 15.6495 13.3839 15.8839C13.1495 16.1183 12.8315 16.25 12.5 16.25C12.1685 16.25 11.8505 16.1183 11.6161 15.8839C11.3817 15.6495 11.25 15.3315 11.25 15V13.75H10C9.66849 13.75 9.35054 13.6183 9.11612 13.3839C8.8817 13.1495 8.75001 12.8315 8.75001 12.5C8.75001 12.1685 8.8817 11.8505 9.11612 11.6161C9.35054 11.3817 9.66849 11.25 10 11.25H11.25V10C11.25 9.66848 11.3817 9.35054 11.6161 9.11612C11.8505 8.8817 12.1685 8.75 12.5 8.75C12.8315 8.75 13.1495 8.8817 13.3839 9.11612C13.6183 9.35054 13.75 9.66848 13.75 10V11.25H15C15.3315 11.25 15.6495 11.3817 15.8839 11.6161C16.1183 11.8505 16.25 12.1685 16.25 12.5Z" fill="white"/>
</svg>
