<svg width="311" height="121" viewBox="0 0 311 121" fill="none" xmlns="http://www.w3.org/2000/svg">
<path d="M28.8719 19.1656L20.8078 16.1969L17.839 8.12656C17.6632 7.64895 17.3452 7.23676 16.9277 6.9456C16.5103 6.65444 16.0136 6.49833 15.5047 6.49833C14.9957 6.49833 14.499 6.65444 14.0816 6.9456C13.6642 7.23676 13.3461 7.64895 13.1703 8.12656L10.1984 16.1875L2.12811 19.1562C1.65049 19.3321 1.2383 19.6501 0.947146 20.0676C0.655988 20.485 0.499878 20.9817 0.499878 21.4906C0.499878 21.9996 0.655988 22.4963 0.947146 22.9137C1.2383 23.3311 1.65049 23.6492 2.12811 23.825L10.1875 26.8125L13.1562 34.8781C13.332 35.3557 13.6501 35.7679 14.0675 36.0591C14.485 36.3502 14.9817 36.5063 15.4906 36.5063C15.9995 36.5063 16.4962 36.3502 16.9137 36.0591C17.3311 35.7679 17.6492 35.3557 17.825 34.8781L20.7937 26.8141L28.864 23.8453C29.3417 23.6695 29.7538 23.3514 30.045 22.934C30.3362 22.5166 30.4923 22.0199 30.4923 21.5109C30.4923 21.002 30.3362 20.5053 30.045 20.0879C29.7538 19.6704 29.3417 19.3524 28.864 19.1766L28.8719 19.1656ZM19.9359 24.4687C19.5981 24.5927 19.2914 24.7887 19.0369 25.0432C18.7825 25.2976 18.5865 25.6044 18.4625 25.9422L15.4937 33.9828L12.5312 25.9359C12.4072 25.5999 12.2118 25.2948 11.9585 25.0415C11.7052 24.7882 11.4001 24.5928 11.064 24.4687L3.02342 21.5L11.064 18.5312C11.4001 18.4072 11.7052 18.2118 11.9585 17.9585C12.2118 17.7052 12.4072 17.4001 12.5312 17.0641L15.5 9.02344L18.4687 17.0641C18.5927 17.4019 18.7887 17.7086 19.0432 17.9631C19.2976 18.2175 19.6044 18.4135 19.9422 18.5375L27.9828 21.5062L19.9359 24.4687ZM20.5 5.25C20.5 4.91848 20.6317 4.60054 20.8661 4.36612C21.1005 4.1317 21.4185 4 21.75 4H24.25V1.5C24.25 1.16848 24.3817 0.850537 24.6161 0.616116C24.8505 0.381696 25.1685 0.25 25.5 0.25C25.8315 0.25 26.1494 0.381696 26.3839 0.616116C26.6183 0.850537 26.75 1.16848 26.75 1.5V4H29.25C29.5815 4 29.8994 4.1317 30.1339 4.36612C30.3683 4.60054 30.5 4.91848 30.5 5.25C30.5 5.58152 30.3683 5.89946 30.1339 6.13388C29.8994 6.3683 29.5815 6.5 29.25 6.5H26.75V9C26.75 9.33152 26.6183 9.64946 26.3839 9.88388C26.1494 10.1183 25.8315 10.25 25.5 10.25C25.1685 10.25 24.8505 10.1183 24.6161 9.88388C24.3817 9.64946 24.25 9.33152 24.25 9V6.5H21.75C21.4185 6.5 21.1005 6.3683 20.8661 6.13388C20.6317 5.89946 20.5 5.58152 20.5 5.25ZM36.75 12.75C36.75 13.0815 36.6183 13.3995 36.3839 13.6339C36.1494 13.8683 35.8315 14 35.5 14H34.25V15.25C34.25 15.5815 34.1183 15.8995 33.8839 16.1339C33.6494 16.3683 33.3315 16.5 33 16.5C32.6685 16.5 32.3505 16.3683 32.1161 16.1339C31.8817 15.8995 31.75 15.5815 31.75 15.25V14H30.5C30.1685 14 29.8505 13.8683 29.6161 13.6339C29.3817 13.3995 29.25 13.0815 29.25 12.75C29.25 12.4185 29.3817 12.1005 29.6161 11.8661C29.8505 11.6317 30.1685 11.5 30.5 11.5H31.75V10.25C31.75 9.91848 31.8817 9.60054 32.1161 9.36612C32.3505 9.1317 32.6685 9 33 9C33.3315 9 33.6494 9.1317 33.8839 9.36612C34.1183 9.60054 34.25 9.91848 34.25 10.25V11.5H35.5C35.8315 11.5 36.1494 11.6317 36.3839 11.8661C36.6183 12.1005 36.75 12.4185 36.75 12.75Z" fill="white"/>
<path d="M81 33C81 32.6685 81.1317 32.3505 81.3661 32.1161C81.6005 31.8817 81.9185 31.75 82.25 31.75H84.75V29.25C84.75 28.9185 84.8817 28.6005 85.1161 28.3661C85.3505 28.1317 85.6685 28 86 28C86.3315 28 86.6495 28.1317 86.8839 28.3661C87.1183 28.6005 87.25 28.9185 87.25 29.25V31.75H89.75C90.0815 31.75 90.3995 31.8817 90.6339 32.1161C90.8683 32.3505 91 32.6685 91 33C91 33.3315 90.8683 33.6495 90.6339 33.8839C90.3995 34.1183 90.0815 34.25 89.75 34.25H87.25V36.75C87.25 37.0815 87.1183 37.3995 86.8839 37.6339C86.6495 37.8683 86.3315 38 86 38C85.6685 38 85.3505 37.8683 85.1161 37.6339C84.8817 37.3995 84.75 37.0815 84.75 36.75V34.25H82.25C81.9185 34.25 81.6005 34.1183 81.3661 33.8839C81.1317 33.6495 81 33.3315 81 33ZM97.25 40.5C97.25 40.8315 97.1183 41.1495 96.8839 41.3839C96.6495 41.6183 96.3315 41.75 96 41.75H94.75V43C94.75 43.3315 94.6183 43.6495 94.3839 43.8839C94.1495 44.1183 93.8315 44.25 93.5 44.25C93.1685 44.25 92.8505 44.1183 92.6161 43.8839C92.3817 43.6495 92.25 43.3315 92.25 43V41.75H91C90.6685 41.75 90.3505 41.6183 90.1161 41.3839C89.8817 41.1495 89.75 40.8315 89.75 40.5C89.75 40.1685 89.8817 39.8505 90.1161 39.6161C90.3505 39.3817 90.6685 39.25 91 39.25H92.25V38C92.25 37.6685 92.3817 37.3505 92.6161 37.1161C92.8505 36.8817 93.1685 36.75 93.5 36.75C93.8315 36.75 94.1495 36.8817 94.3839 37.1161C94.6183 37.3505 94.75 37.6685 94.75 38V39.25H96C96.3315 39.25 96.6495 39.3817 96.8839 39.6161C97.1183 39.8505 97.25 40.1685 97.25 40.5Z" fill="white"/>
<path d="M280.25 104C280.582 104 280.899 104.132 281.134 104.366C281.368 104.601 281.5 104.918 281.5 105.25L281.5 107.75L284 107.75C284.332 107.75 284.649 107.882 284.884 108.116C285.118 108.351 285.25 108.668 285.25 109C285.25 109.332 285.118 109.649 284.884 109.884C284.649 110.118 284.332 110.25 284 110.25L281.5 110.25L281.5 112.75C281.5 113.082 281.368 113.399 281.134 113.634C280.899 113.868 280.582 114 280.25 114C279.918 114 279.601 113.868 279.366 113.634C279.132 113.399 279 113.082 279 112.75L279 110.25L276.5 110.25C276.168 110.25 275.851 110.118 275.616 109.884C275.382 109.649 275.25 109.332 275.25 109C275.25 108.668 275.382 108.351 275.616 108.116C275.851 107.882 276.168 107.75 276.5 107.75L279 107.75L279 105.25C279 104.918 279.132 104.601 279.366 104.366C279.601 104.132 279.918 104 280.25 104ZM272.75 120.25C272.418 120.25 272.101 120.118 271.866 119.884C271.632 119.649 271.5 119.332 271.5 119L271.5 117.75L270.25 117.75C269.918 117.75 269.601 117.618 269.366 117.384C269.132 117.149 269 116.832 269 116.5C269 116.168 269.132 115.851 269.366 115.616C269.601 115.382 269.918 115.25 270.25 115.25L271.5 115.25L271.5 114C271.5 113.668 271.632 113.351 271.866 113.116C272.101 112.882 272.418 112.75 272.75 112.75C273.082 112.75 273.399 112.882 273.634 113.116C273.868 113.351 274 113.668 274 114L274 115.25L275.25 115.25C275.582 115.25 275.899 115.382 276.134 115.616C276.368 115.851 276.5 116.168 276.5 116.5C276.5 116.832 276.368 117.149 276.134 117.384C275.899 117.618 275.582 117.75 275.25 117.75L274 117.75L274 119C274 119.332 273.868 119.649 273.634 119.884C273.399 120.118 273.082 120.25 272.75 120.25Z" fill="white"/>
<path d="M258 31C258 30.6685 258.132 30.3505 258.366 30.1161C258.601 29.8817 258.918 29.75 259.25 29.75H261.75V27.25C261.75 26.9185 261.882 26.6005 262.116 26.3661C262.351 26.1317 262.668 26 263 26C263.332 26 263.649 26.1317 263.884 26.3661C264.118 26.6005 264.25 26.9185 264.25 27.25V29.75H266.75C267.082 29.75 267.399 29.8817 267.634 30.1161C267.868 30.3505 268 30.6685 268 31C268 31.3315 267.868 31.6495 267.634 31.8839C267.399 32.1183 267.082 32.25 266.75 32.25H264.25V34.75C264.25 35.0815 264.118 35.3995 263.884 35.6339C263.649 35.8683 263.332 36 263 36C262.668 36 262.351 35.8683 262.116 35.6339C261.882 35.3995 261.75 35.0815 261.75 34.75V32.25H259.25C258.918 32.25 258.601 32.1183 258.366 31.8839C258.132 31.6495 258 31.3315 258 31ZM274.25 38.5C274.25 38.8315 274.118 39.1495 273.884 39.3839C273.649 39.6183 273.332 39.75 273 39.75H271.75V41C271.75 41.3315 271.618 41.6495 271.384 41.8839C271.149 42.1183 270.832 42.25 270.5 42.25C270.168 42.25 269.851 42.1183 269.616 41.8839C269.382 41.6495 269.25 41.3315 269.25 41V39.75H268C267.668 39.75 267.351 39.6183 267.116 39.3839C266.882 39.1495 266.75 38.8315 266.75 38.5C266.75 38.1685 266.882 37.8505 267.116 37.6161C267.351 37.3817 267.668 37.25 268 37.25H269.25V36C269.25 35.6685 269.382 35.3505 269.616 35.1161C269.851 34.8817 270.168 34.75 270.5 34.75C270.832 34.75 271.149 34.8817 271.384 35.1161C271.618 35.3505 271.75 35.6685 271.75 36V37.25H273C273.332 37.25 273.649 37.3817 273.884 37.6161C274.118 37.8505 274.25 38.1685 274.25 38.5Z" fill="white"/>
<path d="M308.872 43.1656L300.808 40.1969L297.839 32.1265C297.663 31.6489 297.345 31.2367 296.928 30.9456C296.51 30.6544 296.014 30.4983 295.505 30.4983C294.996 30.4983 294.499 30.6544 294.082 30.9456C293.664 31.2367 293.346 31.6489 293.17 32.1265L290.198 40.1875L282.128 43.1562C281.65 43.332 281.238 43.6501 280.947 44.0675C280.656 44.485 280.5 44.9817 280.5 45.4906C280.5 45.9996 280.656 46.4962 280.947 46.9137C281.238 47.3311 281.65 47.6492 282.128 47.825L290.187 50.8125L293.156 58.8781C293.332 59.3557 293.65 59.7679 294.068 60.0591C294.485 60.3502 294.982 60.5063 295.491 60.5063C296 60.5063 296.496 60.3502 296.914 60.0591C297.331 59.7679 297.649 59.3557 297.825 58.8781L300.794 50.814L308.864 47.8453C309.342 47.6695 309.754 47.3514 310.045 46.934C310.336 46.5166 310.492 46.0199 310.492 45.5109C310.492 45.002 310.336 44.5053 310.045 44.0879C309.754 43.6704 309.342 43.3524 308.864 43.1765L308.872 43.1656ZM299.936 48.4687C299.598 48.5927 299.291 48.7887 299.037 49.0432C298.782 49.2976 298.586 49.6044 298.462 49.9422L295.494 57.9828L292.531 49.9359C292.407 49.5999 292.212 49.2948 291.958 49.0415C291.705 48.7882 291.4 48.5928 291.064 48.4687L283.023 45.5L291.064 42.5312C291.4 42.4072 291.705 42.2118 291.958 41.9585C292.212 41.7052 292.407 41.4001 292.531 41.064L295.5 33.0234L298.469 41.064C298.593 41.4018 298.789 41.7086 299.043 41.963C299.298 42.2175 299.604 42.4135 299.942 42.5375L307.983 45.5062L299.936 48.4687Z" fill="white"/>
</svg>
