<svg width="81" height="30" viewBox="0 0 81 30" fill="none" xmlns="http://www.w3.org/2000/svg">
<path d="M64 18C64 17.6685 64.1317 17.3505 64.3661 17.1161C64.6005 16.8817 64.9185 16.75 65.25 16.75H67.75V14.25C67.75 13.9185 67.8817 13.6005 68.1161 13.3661C68.3505 13.1317 68.6685 13 69 13C69.3315 13 69.6495 13.1317 69.8839 13.3661C70.1183 13.6005 70.25 13.9185 70.25 14.25V16.75H72.75C73.0815 16.75 73.3995 16.8817 73.6339 17.1161C73.8683 17.3505 74 17.6685 74 18C74 18.3315 73.8683 18.6495 73.6339 18.8839C73.3995 19.1183 73.0815 19.25 72.75 19.25H70.25V21.75C70.25 22.0815 70.1183 22.3995 69.8839 22.6339C69.6495 22.8683 69.3315 23 69 23C68.6685 23 68.3505 22.8683 68.1161 22.6339C67.8817 22.3995 67.75 22.0815 67.75 21.75V19.25H65.25C64.9185 19.25 64.6005 19.1183 64.3661 18.8839C64.1317 18.6495 64 18.3315 64 18ZM80.25 25.5C80.25 25.8315 80.1183 26.1495 79.8839 26.3839C79.6495 26.6183 79.3315 26.75 79 26.75H77.75V28C77.75 28.3315 77.6183 28.6495 77.3839 28.8839C77.1495 29.1183 76.8315 29.25 76.5 29.25C76.1685 29.25 75.8505 29.1183 75.6161 28.8839C75.3817 28.6495 75.25 28.3315 75.25 28V26.75H74C73.6685 26.75 73.3505 26.6183 73.1161 26.3839C72.8817 26.1495 72.75 25.8315 72.75 25.5C72.75 25.1685 72.8817 24.8505 73.1161 24.6161C73.3505 24.3817 73.6685 24.25 74 24.25H75.25V23C75.25 22.6685 75.3817 22.3505 75.6161 22.1161C75.8505 21.8817 76.1685 21.75 76.5 21.75C76.8315 21.75 77.1495 21.8817 77.3839 22.1161C77.6183 22.3505 77.75 22.6685 77.75 23V24.25H79C79.3315 24.25 79.6495 24.3817 79.8839 24.6161C80.1183 24.8505 80.25 25.1685 80.25 25.5Z" fill="#ECC64F"/>
<path d="M3.69231 12C3.44749 12 3.2127 11.9027 3.03959 11.7296C2.86648 11.5565 2.76923 11.3217 2.76923 11.0769L2.76923 9.23077L0.923077 9.23077C0.678262 9.23077 0.443473 9.13352 0.270363 8.96041C0.0972523 8.7873 -1.50695e-07 8.55251 -1.61396e-07 8.30769C-1.72097e-07 8.06288 0.0972523 7.82809 0.270363 7.65498C0.443473 7.48187 0.678262 7.38462 0.923077 7.38462L2.76923 7.38462L2.76923 5.53846C2.76923 5.29364 2.86648 5.05886 3.03959 4.88575C3.2127 4.71264 3.44749 4.61538 3.69231 4.61538C3.93712 4.61538 4.17191 4.71264 4.34502 4.88575C4.51813 5.05886 4.61538 5.29364 4.61538 5.53846L4.61538 7.38462L6.46154 7.38462C6.70635 7.38462 6.94114 7.48187 7.11425 7.65498C7.28736 7.82809 7.38462 8.06288 7.38462 8.30769C7.38462 8.55251 7.28736 8.7873 7.11425 8.96041C6.94114 9.13352 6.70635 9.23077 6.46154 9.23077L4.61538 9.23077L4.61539 11.0769C4.61539 11.3217 4.51813 11.5565 4.34502 11.7296C4.17191 11.9027 3.93712 12 3.69231 12ZM9.23077 4.89207e-07C9.47558 4.78506e-07 9.71037 0.097255 9.88348 0.270365C10.0566 0.443476 10.1538 0.678262 10.1538 0.923077L10.1538 1.84615L11.0769 1.84615C11.3217 1.84615 11.5565 1.94341 11.7296 2.11652C11.9027 2.28963 12 2.52441 12 2.76923C12 3.01404 11.9027 3.24884 11.7296 3.42195C11.5565 3.59506 11.3217 3.69231 11.0769 3.69231L10.1538 3.69231L10.1538 4.61538C10.1538 4.8602 10.0566 5.09499 9.88348 5.2681C9.71037 5.44121 9.47559 5.53846 9.23077 5.53846C8.98595 5.53846 8.75117 5.44121 8.57806 5.2681C8.40495 5.09499 8.30769 4.8602 8.30769 4.61538L8.30769 3.69231L7.38462 3.69231C7.1398 3.69231 6.90501 3.59506 6.7319 3.42195C6.55879 3.24884 6.46154 3.01404 6.46154 2.76923C6.46154 2.52441 6.55879 2.28963 6.7319 2.11652C6.90501 1.94341 7.1398 1.84615 7.38462 1.84615L8.30769 1.84615L8.30769 0.923077C8.30769 0.678262 8.40495 0.443476 8.57806 0.270365C8.75117 0.097255 8.98595 4.99909e-07 9.23077 4.89207e-07Z" fill="#ECC64F"/>
</svg>
