<svg width="24" height="23" viewBox="0 0 24 23" fill="none" xmlns="http://www.w3.org/2000/svg">
<path fill-rule="evenodd" clip-rule="evenodd" d="M22.1089 3.31154C18.4975 -1.9275 11.7393 -0.196301 11.7393 3.31154C11.7393 -0.196301 4.70954 -1.53455 1.36903 3.31154C-2.24235 8.55058 1.31714 17.7281 11.7393 22.9999C22.1608 17.7281 25.7203 8.55058 22.1089 3.31154ZM16.717 3.87795C17.0605 3.4455 17.6895 3.3734 18.122 3.71691C18.8011 4.25634 19.2797 4.6954 19.6424 5.26189C19.9924 5.80861 20.1978 6.42252 20.4497 7.18689C20.6226 7.71141 20.3376 8.27678 19.8131 8.44968C19.2885 8.62257 18.7232 8.33751 18.5503 7.81299C18.2815 6.99753 18.1475 6.6362 17.958 6.34027C17.7812 6.06409 17.5202 5.79306 16.878 5.28297C16.4456 4.93946 16.3735 4.31041 16.717 3.87795Z" fill="#282828"/>
</svg>
