<svg width="22" height="25" viewBox="0 0 22 25" fill="none" xmlns="http://www.w3.org/2000/svg">
<path d="M19.5649 8.07893L19.5773 8.09459L19.5903 8.10975C20.0038 8.59139 20.2526 9.21535 20.2526 9.89996V21.2495C20.2526 22.7686 19.0212 24 17.5021 24H14.7517V20.7161C14.7517 18.4377 12.9047 16.5907 10.6263 16.5907C8.34791 16.5907 6.50091 18.4377 6.50091 20.7161V24H3.75046C2.23142 24 1 22.7686 1 21.2495V9.89996C1 9.21535 1.24883 8.5914 1.66226 8.10976L1.67527 8.0946L1.68767 8.07894C1.75212 7.99748 1.82918 7.91733 1.92092 7.84042L1.27848 7.07408L1.92092 7.84042L9.66245 1.35056C10.22 0.883146 11.0326 0.883146 11.5901 1.35056L19.3317 7.84043C19.4234 7.91733 19.5005 7.99748 19.5649 8.07893Z" stroke="#282828" stroke-width="2"/>
</svg>
