<svg width="22" height="25" viewBox="0 0 22 25" fill="none" xmlns="http://www.w3.org/2000/svg">
<path d="M9.02001 0.584223C9.94921 -0.194741 11.3034 -0.194741 12.2326 0.584223L19.9741 7.07409C20.117 7.1939 20.2418 7.32274 20.3491 7.45841C20.9123 8.1145 21.2526 8.96749 21.2526 9.89996V21.2495C21.2526 23.3209 19.5735 25 17.5021 25H14.1978C13.9439 25 13.7517 24.7728 13.7517 24.519V20.7161C13.7517 18.99 12.3524 17.5908 10.6263 17.5908C8.90019 17.5908 7.50091 18.99 7.50091 20.7161V24.519C7.50091 24.7728 7.30866 25 7.0548 25H3.75046C1.67914 25 0 23.3209 0 21.2495V9.89996C0 8.9675 0.340293 8.11452 0.903467 7.45843C1.01083 7.32275 1.13556 7.1939 1.27848 7.07408L9.02001 0.584223Z" fill="#282828"/>
</svg>
