<svg width="23" height="25" viewBox="0 0 23 25" fill="none" xmlns="http://www.w3.org/2000/svg">
<path fill-rule="evenodd" clip-rule="evenodd" d="M0.477783 6.08334C0.477783 3.8742 2.26864 2.08334 4.47778 2.08334H18.3528C20.5619 2.08334 22.3528 3.8742 22.3528 6.08334V21C22.3528 23.2092 20.5619 25 18.3528 25H4.47778C2.26864 25 0.477783 23.2091 0.477783 21V6.08334ZM4.64453 11.5C4.64453 10.9477 5.09225 10.5 5.64453 10.5H17.1862C17.7385 10.5 18.1862 10.9477 18.1862 11.5C18.1862 12.0523 17.7385 12.5 17.1862 12.5H5.64453C5.09225 12.5 4.64453 12.0523 4.64453 11.5ZM5.64445 14.6667C5.09217 14.6667 4.64445 15.1144 4.64445 15.6667C4.64445 16.219 5.09216 16.6667 5.64445 16.6667H13.0195C13.5717 16.6667 14.0195 16.219 14.0195 15.6667C14.0195 15.1144 13.5717 14.6667 13.0195 14.6667H5.64445Z" fill="#282828"/>
<line x1="7.20703" y1="1" x2="7.20703" y2="4.20833" stroke="#282828" stroke-width="2" stroke-linecap="round"/>
<line x1="15.5403" y1="1" x2="15.5403" y2="4.20833" stroke="#282828" stroke-width="2" stroke-linecap="round"/>
</svg>
